<svg xmlns="http://www.w3.org/2000/svg" xmlns:xlink="http://www.w3.org/1999/xlink" width="86.129" height="86.455" viewBox="0 0 86.129 86.455"><defs><clipPath id="a"><path d="M32.79,0H53.339a32.79,32.79,0,0,1,32.79,32.79v9.945a43.72,43.72,0,0,1-43.72,43.72h0A42.409,42.409,0,0,1,0,44.046V32.79A32.79,32.79,0,0,1,32.79,0Z" transform="translate(482 1336)" fill="#d0fff5" opacity="0.998"/></clipPath></defs><g transform="translate(-482 -1336)" clip-path="url(#a)"><g transform="matrix(1, -0.017, 0.017, 1, 497.85, 1335.913)"><g transform="translate(0 0)"><path d="M33.954,91.711V87.929h-.263v-.457h.272V82.5h-.331V81.93h.282V76.562h-.36L34.6,42.909l21.09-18.99V15.781L28.645,39.321l-3.5-.992L15.577,0,13.3.292v9.859L20.332,38.1,15.311,33c-3.425-.878-6.756-5.264-10.072-10.231L0,17.444v8.168L16.744,43.347l-.788,32.9H15.6v5.367h.282v.574h-.331v4.969h.272v.457h-.262V91.4M27.128,76.018l-2.392-.35.408-30.454h2.3Z" transform="translate(1.784 1.784)" fill="#579bff"/><path d="M37.523,93.5H33.954v-2.85a1.776,1.776,0,0,1-.262-.932v-.457a1.777,1.777,0,0,1,.272-.948V85.323a1.775,1.775,0,0,1-.331-1.035v-.574a1.775,1.775,0,0,1,.282-.963v-3.33a1.785,1.785,0,0,1-.359-1.13L34.6,44.639a1.784,1.784,0,0,1,.59-1.271l20.5-18.458V21.485L31.6,42.452a1.785,1.785,0,0,1-1.658.371l-3.5-.992A1.785,1.785,0,0,1,25.2,40.546L16.87,7.185v4.53l6.976,27.731a1.784,1.784,0,0,1-3,1.687l-4.7-4.773c-3.564-1.185-6.8-5.135-10.512-10.678l-2.065-2.1v3.1l16.257,17.22a1.785,1.785,0,0,1,.486,1.268l-.788,32.9a1.776,1.776,0,0,1-.359,1.032v3.33a1.776,1.776,0,0,1,.282.963v.574a1.776,1.776,0,0,1-.33,1.035V88a1.776,1.776,0,0,1,.272.948V89.4a1.775,1.775,0,0,1-.263.932v2.85H15.557V89.4a1.823,1.823,0,0,0-.01-.457V83.977a1.786,1.786,0,0,1,.054-.437q-.005-.068-.005-.137V78.036a1.776,1.776,0,0,1,.386-1.108l.745-31.1L.487,28.621A1.784,1.784,0,0,1,0,27.4V19.228a1.784,1.784,0,0,1,3.056-1.252L8.294,23.3a1.8,1.8,0,0,1,.213.261c5.093,7.631,7.423,9.081,9.031,9.493a1.783,1.783,0,0,1,.828.477l.419.426-5.43-21.583a1.791,1.791,0,0,1-.054-.435V2.076A1.784,1.784,0,0,1,14.859.306L17.134.015a1.784,1.784,0,0,1,1.958,1.338L28.41,38.679l1.577.447L56.3,16.22a1.784,1.784,0,0,1,2.956,1.346V25.7a1.784,1.784,0,0,1-.59,1.326L38.14,45.51l-.983,31.807a1.776,1.776,0,0,1,.327,1.03v5.367c0,.046,0,.092-.005.137a1.785,1.785,0,0,1,.054.437v4.969a1.806,1.806,0,0,0-.01.457Zm-8.61-13.909a1.806,1.806,0,0,1-.258-.019l-2.392-.35a1.784,1.784,0,0,1-1.526-1.789l.408-30.454a1.784,1.784,0,0,1,1.784-1.76h2.3a1.784,1.784,0,0,1,1.784,1.8l-.321,30.8a1.784,1.784,0,0,1-1.784,1.766Z" fill="#579bff"/></g><g transform="translate(1.784 17.303)"><path d="M27.443.573,27.8.263V0L0,24.036l6.68-1.313L23.6,5.8Z" transform="translate(27.887 0)" fill="#727272"/><path d="M.1.369,0,0,1.673.661,20.944,20.419v1.225l-3.7-2.071L.321,1.2Z" transform="translate(0 1.925)" fill="#579bff"/></g><path d="M1.169,9.757A2.455,2.455,0,0,1,.192,6.811c.758-1.838,3.5-4.376,8.357-5.294S23.684-1.268,34.924,1.31s11.746,5.262,11.9,5.457,1.235,2.3-1.711,4.726S6.551,10.151,6.551,10.151Z" transform="translate(3.926 9.194)" fill="#1546a1"/><path d="M24.483.012C37.4.7,42.57,3.774,44.556,5.669a2.882,2.882,0,0,1,.757,2.954c-2.976,9.424-11.847,18.031-22.525,18.031A23.432,23.432,0,0,1,0,7.262S0-.338,24.483.012Z" transform="translate(4.527 10.504)" fill="#c3fdf2"/><g transform="translate(4.835 11.185)"><path d="M.083,2.3c.314-.086.705.347.873.966A1.568,1.568,0,0,1,.929,4.327,10.029,10.029,0,0,1,3.579,2.694l-.017,0c-.51.064-1-.526-1.1-1.316A1.6,1.6,0,0,1,2.851,0a9.98,9.98,0,0,0-.945.526,8,8,0,0,0-.7.5l.025-.009c.37-.1.824.384,1.014,1.083s.044,1.347-.326,1.447S1.1,3.166.908,2.467A1.648,1.648,0,0,1,.98,1.221,5.416,5.416,0,0,0,0,2.336.311.311,0,0,1,.083,2.3Z" transform="translate(0.644 3.17)" fill="#1546a1"/><path d="M1.361,1.8l-.024.009C1.023,1.892.632,1.459.463.84A1.858,1.858,0,0,1,.415,0,3.442,3.442,0,0,0,.149,2.654L.519,3.861A2.262,2.262,0,0,1,1.361,1.8Z" transform="translate(0 5.905)" fill="#1546a1"/><path d="M2.092.839C1.662.571,1.15.288.568,0A1.5,1.5,0,0,1,.963,1.451,1.448,1.448,0,0,1,0,2.681a8.592,8.592,0,0,1,1.076.7A1.855,1.855,0,0,1,1.1,2C1.323,1.319,1.747.839,2.092.839Z" transform="translate(41.504 4.159)" fill="#1546a1"/><path d="M3.527.364c.036,0,.072,0,.107.006Q2.584.215,1.515.115.778.047.017,0A1.368,1.368,0,0,1,1.191,1.353,1.368,1.368,0,0,1,0,2.709,51.587,51.587,0,0,1,6.478,3.755a1.463,1.463,0,0,1-.688-1.272A1.361,1.361,0,0,1,7.063,1.049,1.361,1.361,0,0,1,8.336,2.483,1.373,1.373,0,0,1,7.148,3.911c.977.235,1.872.481,2.672.72a1.462,1.462,0,0,1-.69-1.273A1.361,1.361,0,0,1,10.4,1.924c.021,0,.042,0,.063,0A45.678,45.678,0,0,0,3.831.4a1.365,1.365,0,1,1-.3-.035Z" transform="translate(26.18 0.111)" fill="#1546a1"/><path d="M1.139,1.305a1.317,1.317,0,0,1-1.1,1.3c1.123.017,2.214.074,3.269.163A1.368,1.368,0,0,1,3.7.1C2.495.027,1.255,0,0,0A1.317,1.317,0,0,1,1.139,1.305Z" transform="translate(22.273 0)" fill="#1546a1"/><path d="M4.052,3.043c.145-.778.688-1.33,1.213-1.232.014,0,.027.007.04.011A37.248,37.248,0,0,0,.687,0a1.469,1.469,0,0,1,.659,1.255A1.361,1.361,0,0,1,.072,2.689c-.024,0-.048,0-.072,0,.733.228,1.377.446,1.918.641A1.625,1.625,0,0,1,1.69,2.091c.145-.778.728-1.323,1.3-1.216a1.29,1.29,0,0,1,.779,1.6,1.479,1.479,0,0,1-.927,1.194c.7.272,1.076.446,1.076.446s.115.042.306.126A1.728,1.728,0,0,1,4.052,3.043Z" transform="translate(36.511 2.213)" fill="#1546a1"/><path d="M2.319,1.257C2.28.94,1.849.5,1.105,0A1.873,1.873,0,0,1,1.08,1.379C.835,2.113.357,2.616,0,2.527a5.608,5.608,0,0,1,.821.848A2.847,2.847,0,0,1,.99,2.242c.251-.751.675-1.286.946-1.195s.288.773.037,1.524c-.231.69-.607,1.2-.877,1.2a3.543,3.543,0,0,1,.391.89A7.451,7.451,0,0,0,2.319,1.257Z" transform="translate(42.82 5.211)" fill="#1546a1"/><path d="M0,0A.7.7,0,0,0,.034.111Z" transform="translate(0.519 9.765)" fill="#18202d"/><path d="M16.934,1.3A1.317,1.317,0,0,1,18.059,0c-1.061.01-2.131.045-3.2.1a1.319,1.319,0,1,1-1.245.081C8.224.581,3.1,1.585,0,3L.008,3c.51-.064,1,.526,1.1,1.316A1.562,1.562,0,0,1,.681,5.73C1.251,5.485,1.9,5.239,2.64,5H2.617A1.287,1.287,0,0,1,1.524,3.58,1.287,1.287,0,0,1,2.617,2.163,1.287,1.287,0,0,1,3.71,3.58a1.5,1.5,0,0,1-.6,1.267c.707-.22,1.491-.438,2.358-.651-.025,0-.05,0-.075,0A1.221,1.221,0,0,1,4.3,2.882,1.222,1.222,0,0,1,5.388,1.564,1.222,1.222,0,0,1,6.481,2.882a1.323,1.323,0,0,1-.736,1.245C7.26,3.766,9.023,3.42,11.077,3.1A43.742,43.742,0,0,1,18,2.6,1.318,1.318,0,0,1,16.934,1.3Z" transform="translate(3.842 0.003)" fill="#1546a1"/></g><g transform="translate(7.532 20.368)"><path d="M.938,0,0,3.111c.871.123,1.755.276,2.631.466L3.9.569C2.712.309,1.76.128.938,0Z" transform="translate(25.478 0.427)" fill="#1546a1"/><path d="M3.808.606C3.578.544,3.34.482,3.093.423,2.428.264,1.822.124,1.266,0L0,3.008c.745.168,1.482.364,2.2.59Z" transform="translate(28.346 1.048)" fill="#1546a1"/><path d="M3.7.975A10.685,10.685,0,0,0,1.957,0L0,2.939a10.137,10.137,0,0,1,1.592.91Z" transform="translate(32.787 2.566)" fill="#1546a1"/><path d="M1.613,0,0,3l.185.061c.6.2,1.135.412,1.606.623L3.746.748A17.536,17.536,0,0,0,1.613,0Z" transform="translate(30.776 1.72)" fill="#1546a1"/><path d="M.465,3.794,2.859,1.026A3.856,3.856,0,0,0,2.249,0L0,2.8A2.674,2.674,0,0,1,.465,3.794Z" transform="translate(35.575 4.759)" fill="#1546a1"/><path d="M0,3.061c.933.007,2.017.04,3.188.12l.274-3.1C2.546.066,1.526.058.163,0L.053,0Z" transform="translate(19.04 0.021)" fill="#1546a1"/><path d="M2.773,3.393,3.712.279A26.288,26.288,0,0,0,.275,0L0,3.107C.888,3.172,1.821,3.264,2.773,3.393Z" transform="translate(22.466 0.112)" fill="#1546a1"/><path d="M0,2.877a5.183,5.183,0,0,1,.854.807L3.1.893A6.515,6.515,0,0,0,2.109,0Z" transform="translate(34.57 3.68)" fill="#1546a1"/><path d="M2.089,0A17.419,17.419,0,0,0,0,.851L1.786,3.536c.6-.239,1.22-.452,1.858-.641Z" transform="translate(3.342 1.767)" fill="#1546a1"/><path d="M2.536,0C1.664.194.812.421,0,.686l1.559,2.9c.747-.214,1.508-.4,2.255-.55Z" transform="translate(5.663 1.005)" fill="#1546a1"/><path d="M3.469,0C2.372.063,1.2.166,0,.321L.938,3.435c1.183-.156,2.176-.246,2.808-.3Z" transform="translate(11.696 0.08)" fill="#1546a1"/><path d="M.277,3.2l.331-.028c.427-.038,1.43-.09,2.786-.087L3.446.013C2.483-.013,1.3,0,0,.067Z" transform="translate(15.405 0)" fill="#1546a1"/><path d="M1.691,0A10.311,10.311,0,0,0,0,1.069L1.788,3.51a12.751,12.751,0,0,1,1.678-.841Z" transform="translate(1.434 2.728)" fill="#1546a1"/><path d="M.045,2.817A1.282,1.282,0,0,1,0,3.265L2.52.2A1.259,1.259,0,0,0,2.482,0Z" transform="translate(36.037 6.051)" fill="#1546a1"/><path d="M0,.519,1.279,3.561c.937-.188,1.846-.333,2.673-.447L3.014,0C2.01.135.995.306,0,.519Z" transform="translate(8.439 0.433)" fill="#1546a1"/><path d="M.164,0C.107.081.052.164,0,.247l1.526,2.26c.11-.127.229-.25.354-.37Z" transform="translate(0 5.112)" fill="#18202d"/><path d="M.934,0A6.386,6.386,0,0,0,0,.962L1.745,3.136a7.716,7.716,0,0,1,.959-.72Z" transform="translate(0.313 3.949)" fill="#1546a1"/></g><g transform="translate(8.398 20.558)"><path d="M1.816,1.731c-.351.538-1.075.935-1.5.656S-.081,1.261.27.723,1.412-.183,1.838.1,2.167,1.193,1.816,1.731Z" transform="translate(30.671 2.172)" fill="#c3fdf2"/><path d="M1.563,1.5c-.3.468-.931.814-1.3.575S-.068,1.1.237.632s.988-.79,1.354-.551S1.868,1.029,1.563,1.5Z" transform="translate(32.936 3.138)" fill="#c3fdf2"/><path d="M1.169,1.3c-.3.467-.826.882-1.056.732S.03,1.22.335.752,1.2-.118,1.43.032,1.473.828,1.169,1.3Z" transform="translate(34.635 4.141)" fill="#c3fdf2"/><path d="M1.169,1.3c-.3.467-.826.882-1.056.732S.031,1.22.335.752,1.2-.118,1.43.032,1.473.828,1.169,1.3Z" transform="translate(35.513 5.171)" fill="#c3fdf2"/><circle cx="1.286" cy="1.286" r="1.286" transform="translate(18.555 0)" fill="#c3fdf2"/><circle cx="1.286" cy="1.286" r="1.286" transform="translate(21.975 0.162)" fill="#c3fdf2"/><ellipse cx="1.224" cy="1.286" rx="1.224" ry="1.286" transform="translate(25.273 0.56)" fill="#c3fdf2"/><ellipse cx="1.26" cy="1.109" rx="1.26" ry="1.109" transform="translate(27.857 3.289) rotate(-66.659)" fill="#c3fdf2"/><path d="M.3,1.731c.351.538,1.075.935,1.5.656S2.2,1.261,1.851.723.709-.183.282.1-.046,1.193.3,1.731Z" transform="translate(3.256 2.172)" fill="#c3fdf2"/><path d="M.364,1.3c.3.467.827.882,1.056.732S1.5,1.22,1.2.752.333-.118.1.032.059.828.364,1.3Z" transform="translate(0 4.261)" fill="#c3fdf2"/><circle cx="1.286" cy="1.286" r="1.286" transform="translate(15.041 0.119)" fill="#c3fdf2"/><circle cx="1.286" cy="1.286" r="1.286" transform="translate(11.621 0.282)" fill="#c3fdf2"/><ellipse cx="1.109" cy="1.26" rx="1.109" ry="1.26" transform="translate(5.276 1.973) rotate(-23.341)" fill="#c3fdf2"/><path d="M.267,1.5c.3.468.93.814,1.3.575S1.9,1.1,1.593.632.606-.158.24.081-.038,1.029.267,1.5Z" transform="translate(1.401 3.258)" fill="#c3fdf2"/><ellipse cx="1.224" cy="1.286" rx="1.224" ry="1.286" transform="translate(8.446 0.68)" fill="#c3fdf2"/></g><path d="M33.954,91.711V87.929h-.263v-.457h.272V82.5h-.331V81.93h.282V76.562h-.36L34.6,42.909l21.09-18.99V15.781L28.645,39.321l-3.5-.992L15.577,0,13.3.292v9.859L20.332,38.1,15.311,33c-3.425-.878-6.756-5.264-10.072-10.231L0,17.444v8.168L16.744,43.347l-.788,32.9H15.6v5.367h.282v.574h-.331v4.969h.272v.457h-.262V91.4M27.128,76.018l-2.392-.35.408-30.454h2.3Z" transform="translate(1.784 1.784)" fill="#174dfd"/><path d="M4.492.36V.04L0,0V5.185H4.337v.186h8.984l5.076.24V.813L13.438.653,6.836.466Z" transform="translate(17.342 72.458)" fill="#c3fdf2"/><path d="M.117,2.236,0,1.711V0L4.978.836v.282L3.034.933,2.3,1.711Z" transform="translate(26.929 45.287)" fill="#337dff"/><path d="M2.372,9.743,0,10.151V.292L2.275,0Z" transform="translate(15.086 1.784)" fill="#337dff"/><g transform="translate(6.009 15.604)"><g transform="translate(0 0)"><path d="M0,.5,1.822,0,1.374,1.79Z" transform="translate(5.05 1.731)" fill="#1546a1"/><path d="M2,.933,0,1.486.487,0Z" transform="translate(5.965 3.594)" fill="#1546a1"/><path d="M2.645.007,1.507,1.349,0,0Z" transform="translate(16.394 0.088)" fill="#1546a1"/><path d="M2.834.079,1.359,1.491,0,0Z" transform="translate(23.074 0)" fill="#1546a1"/><path d="M2.377,1.278,0,1.176,1.261,0Z" transform="translate(23.151 1.806)" fill="#1546a1"/><path d="M2.232,1.5,0,1.076,1.509,0Z" transform="translate(29.161 2.475)" fill="#1546a1"/><path d="M.935,1.622,0,0,2.392.441Z" transform="translate(29.861 0.572)" fill="#1546a1"/><path d="M.41,1.559,0,0,1.759.688Z" transform="translate(35.35 2.068)" fill="#1546a1"/><path d="M.136,1.735,0,0,1.234.889Z" transform="translate(39.356 3.721)" fill="#1546a1"/><path d="M2.45,1.251,0,1.382,1.031,0Z" transform="translate(16.909 1.819)" fill="#1546a1"/><path d="M1.074.817,0,1.384V0Z" transform="translate(2.854 5.228)" fill="#1546a1"/><path d="M.943,0,.885,1.575,0,.576Z" transform="translate(1.848 3.259)" fill="#1546a1"/><path d="M.389,0,.68,1.488,0,.58Z" transform="translate(0 5.314)" fill="#1546a1"/><path d="M.651.63l-.394.621L0,0Z" transform="translate(0.919 7.222)" fill="#1546a1"/><path d="M0,.933,1.314,0l.475,1.458Z" transform="translate(34.26 3.896)" fill="#1546a1"/></g><path d="M0,.7,1.069,0l.055,1.429Z" transform="translate(38.277 5.685)" fill="#1546a1"/><path d="M0,.525.806,0,.388,1.17Z" transform="translate(40.495 7.665)" fill="#1546a1"/><path d="M0,1.361.437,0,.7.721Z" transform="translate(41.504 6.012)" fill="#1546a1"/></g><g transform="translate(6.794 15.515)"><g transform="translate(18.77 0)"><g transform="translate(2.675 0)"><rect width="0.239" height="3.165" transform="translate(0 0.011) rotate(-2.641)" fill="#1546a1"/></g><g transform="translate(2.179 0)"><rect width="0.239" height="3.165" transform="translate(0 0.011) rotate(-2.641)" fill="#1546a1"/></g><g transform="translate(1.684 0.1)"><rect width="0.239" height="3.065" transform="translate(0 0.011) rotate(-2.641)" fill="#1546a1"/></g><g transform="translate(1.195 0.085)"><rect width="0.239" height="3.08" transform="translate(0 0.011) rotate(-2.643)" fill="#1546a1"/></g><g transform="translate(0.816 0.085)"><rect width="0.239" height="3.08" transform="translate(0 0.011) rotate(-2.641)" fill="#1546a1"/></g><g transform="translate(0.371 0.1)"><rect width="0.239" height="3.065" transform="translate(0 0.011) rotate(-2.641)" fill="#1546a1"/></g><g transform="translate(0 0.1)"><rect width="0.239" height="3.065" transform="translate(0 0.011) rotate(-2.641)" fill="#1546a1"/></g></g><g transform="translate(25.302 0.172)"><g transform="translate(2.55 0.414)"><rect width="2.988" height="0.245" transform="translate(0 2.916) rotate(-77.406)" fill="#1546a1"/></g><g transform="translate(2.199 0.302)"><rect width="3.026" height="0.245" transform="matrix(0.17, -0.985, 0.985, 0.17, 0, 2.982)" fill="#1546a1"/></g><g transform="translate(1.703 0.22)"><rect width="3.105" height="0.245" transform="translate(0 3.065) rotate(-80.816)" fill="#1546a1"/></g><g transform="translate(1.257 0.152)"><rect width="3.087" height="0.245" transform="translate(0 3.064) rotate(-82.997)" fill="#1546a1"/></g><g transform="translate(0.876 0.075)"><rect width="3.085" height="0.245" transform="translate(0 3.07) rotate(-84.357)" fill="#1546a1"/></g><g transform="translate(0.423 0.03)"><rect width="3.058" height="0.245" transform="matrix(0.099, -0.995, 0.995, 0.099, 0, 3.043)" fill="#1546a1"/></g><g transform="translate(0 0)"><rect width="3.061" height="0.245" transform="translate(0 3.041) rotate(-83.545)" fill="#1546a1"/></g></g><g transform="translate(30.978 1.272)"><g transform="translate(2.101 0.708)"><rect width="2.865" height="0.221" transform="matrix(0.352, -0.936, 0.936, 0.352, 0, 2.682)" fill="#1546a1"/></g><g transform="translate(1.813 0.547)"><rect width="2.904" height="0.221" transform="translate(0 2.759) rotate(-71.833)" fill="#1546a1"/></g><g transform="translate(1.395 0.413)"><rect width="2.98" height="0.221" transform="translate(0 2.84) rotate(-72.379)" fill="#1546a1"/></g><g transform="translate(1.031 0.286)"><rect width="2.962" height="0.221" transform="translate(0 2.852) rotate(-74.304)" fill="#1546a1"/></g><g transform="translate(0.721 0.163)"><rect width="2.959" height="0.221" transform="translate(0 2.865) rotate(-75.494)" fill="#1546a1"/></g><g transform="translate(0.351 0.07)"><rect width="2.933" height="0.221" transform="translate(0 2.84) rotate(-75.494)" fill="#1546a1"/></g><g transform="translate(0 0)"><rect width="2.937" height="0.221" transform="translate(0 2.834) rotate(-74.803)" fill="#1546a1"/></g></g><g transform="translate(35.409 2.882)"><g transform="translate(1.596 0.829)"><rect width="2.863" height="0.197" transform="translate(0 2.524) rotate(-61.826)" fill="#1546a1"/></g><g transform="translate(1.38 0.649)"><rect width="2.904" height="0.197" transform="translate(0 2.606) rotate(-63.829)" fill="#1546a1"/></g><g transform="translate(1.05 0.494)"><rect width="2.979" height="0.197" transform="matrix(0.435, -0.901, 0.901, 0.435, 0, 2.683)" fill="#1546a1"/></g><g transform="translate(0.778 0.342)"><rect width="2.962" height="0.197" transform="translate(0 2.701) rotate(-65.772)" fill="#1546a1"/></g><g transform="translate(0.548 0.199)"><rect width="2.958" height="0.197" transform="translate(0 2.718) rotate(-66.744)" fill="#1546a1"/></g><g transform="translate(0.271 0.086)"><rect width="2.933" height="0.197" transform="translate(0 2.694) rotate(-66.744)" fill="#1546a1"/></g><g transform="translate(0 0)"><rect width="2.936" height="0.197" transform="translate(0 2.686) rotate(-66.168)" fill="#1546a1"/></g></g><g transform="translate(38.705 4.929)"><g transform="translate(0.832 0.695)"><rect width="2.799" height="0.079" transform="matrix(0.54, -0.841, 0.841, 0.54, 0, 2.355)" fill="#1546a1"/></g><g transform="translate(0.742 0.558)"><rect width="2.782" height="0.079" transform="translate(0 2.372) rotate(-58.514)" fill="#1546a1"/></g><g transform="translate(0.589 0.446)"><rect width="2.759" height="0.079" transform="translate(0 2.358) rotate(-58.731)" fill="#1546a1"/></g><g transform="translate(0.438 0.338)"><rect width="2.742" height="0.079" transform="matrix(0.504, -0.864, 0.864, 0.504, 0, 2.368)" fill="#1546a1"/></g><g transform="translate(0.313 0.234)"><rect width="2.738" height="0.079" transform="matrix(0.495, -0.869, 0.869, 0.495, 0, 2.379)" fill="#1546a1"/></g><g transform="translate(0.158 0.156)"><rect width="2.714" height="0.079" transform="matrix(0.495, -0.869, 0.869, 0.495, 0, 2.359)" fill="#1546a1"/></g><g transform="translate(0 0)"><rect width="2.831" height="0.079" transform="matrix(0.5, -0.866, 0.866, 0.5, 0, 2.452)" fill="#1546a1"/></g></g><g transform="translate(6.445 1.193)"><g transform="translate(0 0.695)"><rect width="0.119" height="2.85" transform="matrix(0.938, -0.347, 0.347, 0.938, 0, 0.041)" fill="#1546a1"/></g><g transform="translate(0.389 0.535)"><rect width="0.119" height="2.889" transform="translate(0 0.037) rotate(-17.83)" fill="#1546a1"/></g><g transform="translate(0.808 0.404)"><rect width="0.119" height="2.964" transform="translate(0 0.035) rotate(-17.287)" fill="#1546a1"/></g><g transform="translate(1.269 0.279)"><rect width="0.119" height="2.947" transform="translate(0 0.032) rotate(-15.364)" fill="#1546a1"/></g><g transform="translate(1.636 0.157)"><rect width="0.119" height="2.944" transform="translate(0 0.029) rotate(-14.163)" fill="#1546a1"/></g><g transform="translate(2.012 0.067)"><rect width="0.119" height="2.918" transform="matrix(0.97, -0.245, 0.245, 0.97, 0, 0.029)" fill="#1546a1"/></g><g transform="translate(2.326 0)"><rect width="0.119" height="2.922" transform="translate(0 0.031) rotate(-14.865)" fill="#1546a1"/></g></g><g transform="translate(2.148 2.538)"><g transform="translate(0 0.767)"><rect width="0.119" height="2.848" transform="translate(0 0.055) rotate(-27.641)" fill="#1546a1"/></g><g transform="translate(0.265 0.597)"><rect width="0.119" height="2.889" transform="translate(0 0.052) rotate(-25.799)" fill="#1546a1"/></g><g transform="translate(0.56 0.453)"><rect width="0.119" height="2.964" transform="translate(0 0.051) rotate(-25.394)" fill="#1546a1"/></g><g transform="translate(0.888 0.313)"><rect width="0.119" height="2.947" transform="translate(0 0.048) rotate(-23.955)" fill="#1546a1"/></g><g transform="translate(1.145 0.18)"><rect width="0.119" height="2.943" transform="translate(0 0.047) rotate(-23.055)" fill="#1546a1"/></g><g transform="translate(1.415 0.077)"><rect width="0.119" height="2.917" transform="translate(0 0.047) rotate(-23.058)" fill="#1546a1"/></g><g transform="translate(1.643 0)"><rect width="0.119" height="2.921" transform="translate(0 0.048) rotate(-23.582)" fill="#1546a1"/></g></g><g transform="translate(0 4.296)"><g transform="translate(0 0.841)"><rect width="0.095" height="2.587" transform="matrix(0.902, -0.432, 0.432, 0.902, 0, 0.041)" fill="#1546a1"/></g><g transform="translate(0.119 0.637)"><rect width="0.095" height="2.587" transform="translate(0 0.041) rotate(-25.188)" fill="#1546a1"/></g><g transform="translate(0.289 0.493)"><rect width="0.095" height="2.555" transform="translate(0 0.04) rotate(-24.909)" fill="#1546a1"/></g><g transform="translate(0.446 0.284)"><rect width="0.095" height="2.596" transform="translate(0 0.039) rotate(-24.368)" fill="#1546a1"/></g><g transform="translate(0.611 0.182)"><rect width="0.095" height="2.603" transform="translate(0 0.039) rotate(-24.193)" fill="#1546a1"/></g><g transform="translate(0.735 0)"><rect width="0.095" height="2.669" transform="translate(0 0.037) rotate(-22.861)" fill="#1546a1"/></g></g></g></g></g></svg>