<svg xmlns="http://www.w3.org/2000/svg" width="113.092" height="80.89" viewBox="0 0 113.092 80.89"><g transform="translate(-174.754 787.548)"><path d="M428.667-685.356l1.219,2.98.5,13.9.745.609,1.828,1.49,13.2-1.151v-20.9l-7.562.048Z" transform="translate(-214.861 -84.541)" fill="#174dfd"/><path d="M565.1-685.356l-1.219,2.98-.5,13.9-.745.609-1.828,1.49-13.2-1.151v-20.9l7.562.048Z" transform="translate(-316.303 -84.541)" fill="#174dfd"/><path d="M282.7-585.527l-33.621,1.321v-.779l.846.068-3.589-2.167v-6.027l-1.49-.609H242v6.365L244.5-585.6l-7.11-.88-6.094-.271-6.095.271-7.11.88,2.505-1.761v-6.365h-2.844l-1.49.609v6.027l-3.589,2.167.846-.068v.779L179.9-585.527l-3.149,4.18v38.008H285.846v-38.008Zm-46.589,13.476-4.808.068-4.808-.068v-5.891l4.808-.068,4.808.068Z" transform="translate(0 -165.318)" fill="#174dfd" stroke="#337dff" stroke-miterlimit="10" stroke-width="4"/><path d="M177.871-549.231Z" transform="translate(0 -197.435)" fill="#c3fdf2"/><ellipse cx="2.201" cy="2.664" rx="2.201" ry="2.664" transform="translate(228.952 -764.705)" fill="#1e489e"/><g transform="translate(227.847 -765.763)"><path d="M530.219-636.707a.225.225,0,0,1-.209-.141,3.031,3.031,0,0,0-3.079-2.115,3.428,3.428,0,0,0-2.372,2.087.226.226,0,0,1-.292.126.225.225,0,0,1-.126-.293,3.9,3.9,0,0,1,2.73-2.367,3.471,3.471,0,0,1,3.557,2.392.226.226,0,0,1-.124.294A.227.227,0,0,1,530.219-636.707Z" transform="translate(-524.124 639.435)" fill="#1e489e"/></g><path d="M446.161-684.25l-7.313-.338-8.961,2.212-1.219-2.98,9.932-3.025,7.562-.048Z" transform="translate(-214.861 -84.541)" opacity="0.2"/><path d="M462.551-616.388c.161,3.4-.544,3.055-1.216,3.055s-1.354-.994-1.216-3.055c.113-1.683.544-3.055,1.216-3.055S462.471-618.073,462.551-616.388Z" transform="translate(-241.67 -143.379)" fill="#337dff"/><path d="M454.164-601.043a1.541,1.541,0,0,0-1.541-1.541,1.541,1.541,0,0,0-1.541,1.541Z" transform="translate(-233.98 -157.759)" fill="#c3fdf2"/><path d="M458.407-772.989c0-8.041-6.185-14.559-13.814-14.559s-13.814,6.518-13.814,14.559l-4.029,1.93.282,1.162,4.45-1.355,5.482-1.669,14.521,0,10.534,3.028v-1.095Z" transform="translate(-213.225)" fill="#c3fdf2"/><path d="M259.042-460l-28.192.339v-7.449l28.192.339Z" transform="translate(-46.14 -273.305)" fill="#337dff"/><path d="M234.8-368.784a4.045,4.045,0,0,0-3.953,4.131v8.629h7.906v-8.629A4.045,4.045,0,0,0,234.8-368.784Z" transform="translate(-46.14 -357.171)" fill="#c3fdf2"/><path d="M308.546-368.784a3.9,3.9,0,0,0-3.615,4.131v8.629h7.229v-8.629A3.9,3.9,0,0,0,308.546-368.784Z" transform="translate(-109.324 -357.171)" fill="#c3fdf2"/><path d="M379.658-372.16a3.9,3.9,0,0,0-3.615,4.131v8.629h7.229v-8.629A3.9,3.9,0,0,0,379.658-372.16Z" transform="translate(-169.977 -354.291)" fill="#c3fdf2"/><path d="M523.591-367.688a4.306,4.306,0,0,0-4.3,4.311v9.006h8.6v-9.006A4.306,4.306,0,0,0,523.591-367.688Z" transform="translate(-292.155 -358.105)" fill="#c3fdf2"/><rect width="1.625" height="13.769" transform="translate(216.831 -726.964)" fill="#337dff"/><rect width="9.243" height="6.061" transform="translate(226.492 -743.261)" fill="#337dff"/><path d="M198.163-504.79l.794-.779,35.909.762v-.762l-35.966-.677-.736.835Z" transform="translate(-18.26 -239.927)" fill="#337dff"/><path d="M684.211-504.79l-.794-.779-35.909.762v-.762l35.966-.677.736.835Z" transform="translate(-401.514 -239.927)" fill="#337dff"/><g transform="translate(223.964 -767.918)" opacity="0.2"><path d="M497.741-653.668l-.013-.423h0l14.391,0,9.189,1.853-.015.419-9.227-1.86H497.772Z" transform="translate(-497.727 654.09)"/></g><path d="M547.6-684.25l7.313-.338,8.961,2.212,1.219-2.98-9.932-3.025-7.562-.048Z" transform="translate(-316.303 -84.541)" opacity="0.2"/><path d="M618.31-616.388c-.16,3.4.545,3.055,1.216,3.055s1.354-.994,1.216-3.055c-.113-1.683-.545-3.055-1.216-3.055S618.39-618.073,618.31-616.388Z" transform="translate(-376.591 -143.379)" fill="#337dff"/><path d="M623.175-601.043a1.541,1.541,0,0,1,1.541-1.541,1.541,1.541,0,0,1,1.541,1.541Z" transform="translate(-380.76 -157.759)" fill="#c3fdf2"/><path d="M672.685-460l27.843-.02.348-7.091-28.192.339Z" transform="translate(-422.987 -273.305)" fill="#337dff"/><path d="M814.552-368.784a4.045,4.045,0,0,1,3.953,4.131v8.629H810.6v-8.629A4.045,4.045,0,0,1,814.552-368.784Z" transform="translate(-540.617 -357.171)" fill="#c3fdf2"/><path d="M744.737-368.784a3.9,3.9,0,0,1,3.615,4.131v8.629h-7.229v-8.629A3.9,3.9,0,0,1,744.737-368.784Z" transform="translate(-481.359 -357.171)" fill="#c3fdf2"/><path d="M673.625-372.16a3.9,3.9,0,0,1,3.615,4.131v8.629H670.01v-8.629A3.9,3.9,0,0,1,673.625-372.16Z" transform="translate(-420.706 -354.291)" fill="#c3fdf2"/><path d="M521.747-367.688a4.305,4.305,0,0,1,4.3,4.311v9.006h-8.6v-9.006A4.305,4.305,0,0,1,521.747-367.688Z" transform="translate(-290.583 -358.105)" fill="#c3fdf2"/><rect width="1.625" height="13.769" transform="translate(245.769 -713.195) rotate(-180)" fill="#337dff"/><rect width="9.243" height="6.061" transform="translate(236.108 -737.201) rotate(-180)" fill="#337dff"/><path d="M480.715-618.259c0-6.853-5.318-12.409-11.647-12.409s-11.647,5.556-11.647,12.409l-1.9,1.354,7.449-1.084,6.095-.271,6.094.271,7.449,1.084Z" transform="translate(-237.767 -133.805)" fill="#c3fdf2"/></g></svg>