<?xml version="1.0" encoding="UTF-8"?>
<svg id="dubai" xmlns="http://www.w3.org/2000/svg" viewBox="0 0 54.88 60.06">
  <defs>
    <style>
      .cls-1, .cls-2 {
        fill: #8ef4e0;
      }

      .cls-3 {
        fill: #174dfd;
      }

      .cls-3, .cls-2 {
        fill-rule: evenodd;
      }
    </style>
  </defs>
  <path class="cls-2" d="M0,60.06s3.58-2.16,24.01-2.54c20.43-.38,30.86,2.54,30.86,2.54H0Z"/>
  <polygon class="cls-3" points="37.96 58.65 37.58 9.08 36.63 6.92 32.49 10.09 26.42 58.65 37.96 58.65"/>
  <polygon class="cls-3" points="37.58 9.08 38.35 9.48 39.56 58.7 37.96 58.65 37.58 9.08"/>
  <path class="cls-3" d="M11.52,58.68h1.12s.14-16.46,5.22-27.73c6.4-14.19,18.76-23.52,18.76-23.52v-.51S22.58,15.22,15.66,31.59c-5.02,11.88-4.14,27.09-4.14,27.09Z"/>
  <path class="cls-2" d="M10.54,58.68S7.66,24.76,35.76,7.26l.86-.34S10.46,21.71,11.52,58.68h-.98Z"/>
  <path class="cls-3" d="M12.64,58.68s-1.95-21.37,12.64-40.92l.87-.2,4.49-.55,.32-.72,2.3-.36s-4.46,17.55-4.46,42.74H12.64Z"/>
  <path class="cls-3" d="M33.26,15.94l2.84,1.14,.97,41.59h-8.28s-2.02-25.76,4.46-42.74Z"/>
  <polygon class="cls-2" points="35.82 9.43 37.07 0 37.58 1.19 37.58 9.08 35.82 9.43"/>
  <path class="cls-2" d="M26.16,17.57s-12.71,15.13-12.37,41.08l.85,.04s-1.66-20.04,10.97-39.63l4.4-.49,.63-1.56-4.49,.55Z"/>
  <polygon class="cls-2" points="39.07 50.64 31.17 50.64 31.17 51.45 38.85 51.45 39.07 50.64"/>
  <rect class="cls-1" x="12.57" y="54.97" width="24.42" height=".08"/>
  <rect class="cls-1" x="12.73" y="51.66" width="24.26" height=".08"/>
  <polygon class="cls-1" points="13.03 48.74 13.03 48.66 28.6 48.36 36.83 48.36 36.83 48.44 28.6 48.44 13.03 48.74"/>
  <polygon class="cls-1" points="13.55 45.26 13.55 45.18 28.5 44.89 36.75 44.91 36.75 45 28.5 44.98 13.55 45.26"/>
  <polygon class="cls-1" points="14.19 41.8 14.18 41.72 29.13 41.43 36.63 41.72 36.63 41.8 29.13 41.52 14.19 41.8"/>
  <polygon class="cls-1" points="15.12 38.47 15.12 38.38 29.13 37.95 36.63 38.24 36.63 38.32 29.13 38.04 15.12 38.47"/>
  <polygon class="cls-1" points="16 35.63 16 35.55 29.18 34.86 36.53 35.33 36.52 35.41 29.18 34.95 16 35.63"/>
  <polygon class="cls-1" points="17.19 32.35 17.19 32.27 29.43 31.64 36.45 31.98 36.45 32.06 29.43 31.72 17.19 32.35"/>
  <polygon class="cls-1" points="18.43 29.48 18.43 29.4 30.75 28.76 36.45 29.31 36.44 29.39 30.75 28.85 18.43 29.48"/>
  <polygon class="cls-1" points="19.84 26.53 19.83 26.45 30.52 25.72 36.33 26.41 36.32 26.5 30.52 25.8 19.84 26.53"/>
  <polygon class="cls-1" points="36.23 23.42 31.2 22.69 21.71 23.18 21.7 23.1 31.21 22.61 36.24 23.34 36.23 23.42"/>
  <polygon class="cls-1" points="36.23 20.24 32.1 19.4 23.55 20.11 23.54 20.03 32.1 19.31 32.11 19.31 36.24 20.16 36.23 20.24"/>
  <path class="cls-1" d="M28.75,58.69c0-.07-.49-6.66-.18-15.18,.28-7.87,1.32-19.04,4.65-27.57l.08,.03c-3.32,8.52-4.36,19.68-4.64,27.55-.31,8.52,.18,15.11,.18,15.17h-.08Z"/>
  <polygon class="cls-2" points="15.32 38.34 16.38 35.57 25.41 35.1 26.42 31.83 28.4 31.73 28.08 34.96 29.19 34.91 28.86 37.86 26.42 38 24.93 41.13 14.56 41.62 15.32 38.34"/>
  <path class="cls-2" d="M30.01,18.58s-.39,.83-.97,2.5c-.03,.1-.07,.2-.1,.3,0,.01,0,.02,0,.02-.3,.9-.64,2.02-1,3.35-.23,.87-.47,1.83-.7,2.88,0,.03-.01,.06-.02,.09-.21,.97-.43,2.02-.63,3.15,0,.01,0,.02,0,.04-.22,1.21-.43,2.51-.62,3.9-.16,1.18-.31,2.42-.45,3.73-.57,5.55-.83,12.26-.44,20.15l-10.21-.04h-.56s.26-1.91-.15-4.63c0-.02,0-.04,0-.05h0c0-.11-.05-.04,0-.2,.29-1.02,.58-1.54,.45-4.17,.02-.14,.01-.13,.07-.27,.36-.89,.53-1.48,.47-3.17,0-.18-.03-.03,.03-.2,.36-1.06,.54-1.81,.63-3.32,0-.09,0-.12,.03-.2,.57-1.22,.77-2.22,.95-3.81,.02-.19-.06-.02,.03-.2,.52-1.07,.83-1.97,1.11-3.49,.02-.09,0-.12,.03-.2,.54-1.12,1.09-2.08,1.16-3.71,.04-.1,.02-.12,.09-.2,.73-.86,1.06-1.4,1.37-2.99,.05-.09-.05-.13,.02-.21,.79-.88,1.13-1.38,1.48-2.73,0-.01,.01-.02,.02-.03,.02-.07-.04-.09,0-.17,.74-.83,1.18-1.57,1.4-2.83,.07-.1-.05-.1,.02-.21,.97-.88,1.55-1.71,2.11-2.57,.05,0,.1-.01,.14-.02l4.26-.47Z"/>
  <polygon class="cls-3" points="26.82 29.01 29.91 28.85 30.53 25.76 27.44 25.97 26.82 29.01"/>
  <polygon class="cls-3" points="28.99 41.48 36.33 41.82 36.11 44.94 33.6 44.94 33.69 48.4 28.6 48.4 28.69 44.94 28.82 41.48 28.99 41.48"/>
  <polygon class="cls-3" points="29.91 28.85 36.45 29.35 36.45 32.02 29.64 31.68 29.91 28.85"/>
  <path class="cls-2" d="M32.19,12.53l3.86-3.45,1.36,.35-1.16,4.33,1.39,.93h.71v-5.21s-.75-.41-.75-.41V3.92s-.35,3.48-.69,3.86c-.34,.38-.87,.13-.87,.13l-3.66,3.24-.17,1.38Z"/>
  <path class="cls-2" d="M31.2,58.65s-3.21-30.63,7.3-51.47h-.62s-10.88,17.64-7.95,51.47h1.26Z"/>
  <path class="cls-2" d="M31.2,58.65l.74,.03s-2.5-31.63,6.92-51.47l-.35-.03s-10.33,18.01-7.3,51.47Z"/>
  <polygon class="cls-2" points="31.46 35.33 38.57 35.76 38.55 35.13 31.51 34.55 31.46 35.33"/>
  <polygon class="cls-2" points="38.34 20.5 34.39 19.35 34.14 19.95 38.31 21.26 38.34 20.5"/>
  <path class="cls-2" d="M2.67,59.25s28.26,1.02,48.39,0l3.82,.81H0s2.23-.72,2.67-.81Z"/>
  <path class="cls-3" d="M16.77,38.62l8.73-.07c-.57,5.55-.83,12.26-.44,20.15l-10.77-.05s7.75,.04,8.61-.66c.87-.69-3.02-3.47-8.77-4.02-.01,0-.02,0-.03,0h.03s7.92-.46,7.92-.46c0,0-.94-3.16-7.48-3.92l8.96-.35s-1.56-2.33-8.42-3.09l7.78-.34s-1.38-2.65-7.12-3.19l7.12-.2s-1.54-2.97-6.13-3.81Z"/>
  <polygon class="cls-3" points="14.14 53.77 24.86 53.51 24.86 54.02 14.11 53.97 14.14 53.77"/>
  <polygon class="cls-3" points="14.62 49.39 24.88 49.22 24.9 49.54 14.59 49.6 14.62 49.39"/>
  <polygon class="cls-3" points="15.16 45.95 24.98 45.78 24.99 46.1 15.13 46.16 15.16 45.95"/>
  <polygon class="cls-3" points="15.82 42.43 25.19 42.23 25.15 42.55 15.79 42.63 15.82 42.43"/>
  <polygon class="cls-3" points="16.81 38.42 25.54 38.23 25.5 38.55 16.77 38.62 16.81 38.42"/>
  <polygon class="cls-3" points="17.94 34.73 25.99 34.56 25.95 34.81 17.91 34.93 17.94 34.73"/>
  <polygon class="cls-3" points="19.19 30.81 26.64 30.66 26.6 30.91 19.1 31.02 19.19 30.81"/>
  <polygon class="cls-3" points="20.58 27.61 27.3 27.47 27.26 27.72 20.56 27.82 20.58 27.61"/>
  <polygon class="cls-3" points="22.08 24.64 28 24.5 27.93 24.75 22.06 24.85 22.08 24.64"/>
  <polygon class="cls-3" points="23.5 21.64 28.93 21.4 28.85 21.65 23.48 21.85 23.5 21.64"/>
  <path class="cls-3" d="M17.91,34.93l8.04-.12c-.16,1.18-.31,2.42-.45,3.73,0,0-2.81-3.25-7.59-3.62Z"/>
  <path class="cls-3" d="M19.1,31.02l7.47-.11c-.22,1.21-.43,2.51-.62,3.9,0,0-1.64-3.39-6.85-3.79Z"/>
  <path class="cls-3" d="M20.56,27.82l6.66-.1c-.21,.97-.43,2.02-.63,3.15-.21-.32-1.87-2.63-6.03-3.05Z"/>
  <path class="cls-3" d="M22.07,24.85l5.87-.1c-.23,.87-.47,1.83-.7,2.88-.15-.46-1.04-2.57-5.16-2.79Z"/>
  <path class="cls-3" d="M23.48,21.85l5.46-.45c-.3,.9-.64,2.02-1,3.35,0,0-.22-2.83-4.46-2.9Z"/>
  <path class="cls-3" d="M29.04,21.08c.18-.72,.24-2.37-3.29-2.03l4.26-.47s-.39,.83-.97,2.5Z"/>
  <path class="cls-3" d="M25.61,19.07c-.37,1.27-1.82,2.56-1.82,2.56-.04,1.59-1.57,3.05-1.57,3.05-.12,1.57-1.32,3.05-1.32,3.05-.29,1.74-1.35,3.18-1.35,3.18-.12,1.53-1.41,3.9-1.41,3.9-.07,1.38-1.12,3.73-1.12,3.73,.11,1.85-.98,4.04-.98,4.04,.13,1.76-.57,3.52-.57,3.52,.32,1.21-.34,3.47-.34,3.47,.36,1.53-.56,4.4-.56,4.4,.59,1.76,.3,4.68,.3,4.68h0s-.56,0-.56,0c0,0,.26-1.91-.15-4.63,0-.02,0-.04,0-.05h0c0-.11-.05-.04,0-.2,.29-1.02,.58-1.54,.45-4.17,.02-.14,.01-.13,.07-.27,.36-.89,.53-1.48,.47-3.17,0-.18-.03-.03,.03-.2,.36-1.06,.54-1.81,.63-3.32,0-.09,0-.12,.03-.2,.57-1.22,.77-2.22,.95-3.81,.02-.19-.06-.02,.03-.2,.52-1.07,.83-1.97,1.11-3.49,.02-.09,0-.12,.03-.2,.54-1.12,1.09-2.08,1.16-3.71,.04-.1,.02-.12,.09-.2,.73-.86,1.06-1.4,1.37-2.99,.05-.09-.05-.13,.02-.21,.79-.88,1.13-1.38,1.48-2.73,0-.01,.01-.02,.02-.03,.02-.07-.04-.09,0-.17,.74-.83,1.18-1.57,1.4-2.83,.07-.1-.05-.1,.02-.21,.97-.88,1.55-1.71,2.11-2.57Z"/>
</svg>