<svg xmlns="http://www.w3.org/2000/svg" width="84.017" height="84.07" viewBox="0 0 84.017 84.07"><g transform="translate(-2890.071 895.456)"><g transform="translate(2934.474 -895.456)"><g transform="translate(0)"><path d="M3237.151-844.88a6.621,6.621,0,0,1-4.712-1.952l-21.749-21.749a6.622,6.622,0,0,1-1.952-4.712,6.62,6.62,0,0,1,1.952-4.712,6.619,6.619,0,0,1,4.712-1.952,6.62,6.62,0,0,1,4.712,1.952l4.6,4.6,3.055-3.056a4.487,4.487,0,0,1,3.159-1.283,4.487,4.487,0,0,1,3.159,1.283l6.241,6.241a4.436,4.436,0,0,1,1.309,3.159,4.436,4.436,0,0,1-1.31,3.159l-3.055,3.054,4.6,4.6a6.672,6.672,0,0,1,0,9.424A6.619,6.619,0,0,1,3237.151-844.88Z" transform="translate(-3206.468 882.227)" fill="#174dfd"/><path d="M3202.172-890.916a4.382,4.382,0,0,1,3.107,1.287l6.2,6.2,4.66-4.661a2.193,2.193,0,0,1,1.553-.618,2.193,2.193,0,0,1,1.553.618l6.241,6.241a2.195,2.195,0,0,1,.644,1.553,2.194,2.194,0,0,1-.644,1.553l-4.662,4.66,6.2,6.2a4.394,4.394,0,0,1,0,6.214,4.381,4.381,0,0,1-3.107,1.287,4.38,4.38,0,0,1-3.107-1.287l-21.749-21.749a4.394,4.394,0,0,1,0-6.214,4.38,4.38,0,0,1,3.107-1.287m0-4.54a8.877,8.877,0,0,0-6.317,2.617,8.875,8.875,0,0,0-2.617,6.318,8.876,8.876,0,0,0,2.617,6.318l21.749,21.749a8.877,8.877,0,0,0,6.318,2.617,8.876,8.876,0,0,0,6.318-2.617,8.945,8.945,0,0,0,0-12.635l-2.99-2.99,1.45-1.449a6.69,6.69,0,0,0,1.974-4.764,6.693,6.693,0,0,0-1.974-4.764l-6.241-6.241a6.771,6.771,0,0,0-4.764-1.948,6.773,6.773,0,0,0-4.764,1.948l-1.449,1.45-2.991-2.991a8.876,8.876,0,0,0-6.318-2.617Z" transform="translate(-3193.238 895.456)" fill="#579bff"/></g></g><g transform="translate(2890.071 -851.003)"><g transform="translate(0 0)"><path d="M2933.973-541.372a6.62,6.62,0,0,1-4.712-1.952l-4.6-4.6-3.045,3.045a4.436,4.436,0,0,1-3.158,1.309,4.436,4.436,0,0,1-3.159-1.309l-6.24-6.238a4.436,4.436,0,0,1-1.309-3.159,4.437,4.437,0,0,1,1.308-3.159l3.047-3.046-4.6-4.6a6.672,6.672,0,0,1,0-9.425,6.621,6.621,0,0,1,4.712-1.952,6.62,6.62,0,0,1,4.712,1.952l21.749,21.749a6.62,6.62,0,0,1,1.952,4.712,6.621,6.621,0,0,1-1.952,4.712A6.621,6.621,0,0,1,2933.973-541.372Z" transform="translate(-2903.294 578.719)" fill="#174dfd"/><path d="M2899-587.409a4.381,4.381,0,0,1,3.107,1.287l21.749,21.749a4.393,4.393,0,0,1,0,6.214,4.381,4.381,0,0,1-3.107,1.287,4.379,4.379,0,0,1-3.107-1.287l-6.2-6.2-4.651,4.651a2.189,2.189,0,0,1-1.553.644,2.189,2.189,0,0,1-1.553-.644l-6.241-6.239a2.2,2.2,0,0,1-.644-1.553,2.2,2.2,0,0,1,.644-1.553l4.653-4.651-6.2-6.2a4.394,4.394,0,0,1,0-6.214,4.38,4.38,0,0,1,3.107-1.287m0-4.54a8.877,8.877,0,0,0-6.317,2.616,8.945,8.945,0,0,0,0,12.635l2.991,2.991-1.441,1.44a6.694,6.694,0,0,0-1.974,4.764,6.692,6.692,0,0,0,1.974,4.764l6.241,6.239a6.69,6.69,0,0,0,4.763,1.973A6.692,6.692,0,0,0,2910-556.5l1.439-1.439,2.99,2.991a8.876,8.876,0,0,0,6.318,2.617,8.875,8.875,0,0,0,6.317-2.617,8.876,8.876,0,0,0,2.617-6.318,8.876,8.876,0,0,0-2.617-6.318l-21.749-21.749a8.877,8.877,0,0,0-6.318-2.617Z" transform="translate(-2890.071 591.949)" fill="#579bff"/></g></g><g transform="translate(2914.955 -870.577)"><g transform="translate(0 0)"><path d="M3079.75-689.491l16.233-16.288,12.221,12.22-16.233,16.288Z" transform="translate(-3076.853 708.682)" fill="#c3fdf2"/><path d="M3079.1-719.79l9.321,9.321-13.338,13.384-9.321-9.321L3079.1-719.79m0-5.8-2.9,2.91L3062.858-709.3l-2.89,2.9,2.9,2.9,9.321,9.321,2.9,2.9,2.9-2.91,13.338-13.384,2.89-2.9-2.9-2.895L3082-722.69l-2.9-2.9Z" transform="translate(-3059.968 725.595)" fill="#579bff"/></g></g><g transform="translate(2922.046 -889.242)"><g transform="translate(0 0)"><path d="M3158.532-796.239a6.62,6.62,0,0,1-4.712-1.952l-27.963-27.963a6.672,6.672,0,0,1,0-9.424,6.62,6.62,0,0,1,4.712-1.952,6.62,6.62,0,0,1,4.712,1.952l27.963,27.963a6.622,6.622,0,0,1,1.952,4.712,6.621,6.621,0,0,1-1.952,4.712A6.621,6.621,0,0,1,3158.532-796.239Z" transform="translate(-3121.635 839.8)" fill="#174dfd"/><path d="M3117.32-848.49a4.38,4.38,0,0,1,3.107,1.287l27.963,27.963a4.394,4.394,0,0,1,0,6.214,4.381,4.381,0,0,1-3.107,1.287,4.38,4.38,0,0,1-3.107-1.287l-27.963-27.963a4.394,4.394,0,0,1,0-6.214,4.38,4.38,0,0,1,3.107-1.287m0-4.54a8.876,8.876,0,0,0-6.318,2.617,8.875,8.875,0,0,0-2.617,6.318,8.875,8.875,0,0,0,2.617,6.318l27.963,27.963a8.875,8.875,0,0,0,6.317,2.617,8.877,8.877,0,0,0,6.318-2.617,8.874,8.874,0,0,0,2.617-6.318,8.875,8.875,0,0,0-2.617-6.318l-27.963-27.963a8.875,8.875,0,0,0-6.317-2.617Z" transform="translate(-3108.385 853.03)" fill="#579bff"/></g></g><g transform="translate(2896.28 -863.431)"><g transform="translate(0 0)"><path d="M2982.595-620.011a6.621,6.621,0,0,1-4.712-1.952l-27.963-27.963a6.618,6.618,0,0,1-1.952-4.712,6.62,6.62,0,0,1,1.952-4.712,6.62,6.62,0,0,1,4.712-1.952,6.619,6.619,0,0,1,4.712,1.952l27.963,27.963a6.62,6.62,0,0,1,1.952,4.712,6.621,6.621,0,0,1-1.952,4.712A6.62,6.62,0,0,1,2982.595-620.011Z" transform="translate(-2945.698 663.572)" fill="#174dfd"/><path d="M2941.4-672.262a4.38,4.38,0,0,1,3.107,1.287l27.963,27.963a4.393,4.393,0,0,1,0,6.214,4.38,4.38,0,0,1-3.107,1.287,4.38,4.38,0,0,1-3.107-1.287l-27.963-27.963a4.393,4.393,0,0,1,0-6.214,4.38,4.38,0,0,1,3.107-1.287m0-4.54a8.876,8.876,0,0,0-6.317,2.617,8.876,8.876,0,0,0-2.617,6.318,8.876,8.876,0,0,0,2.617,6.318l27.963,27.963a8.876,8.876,0,0,0,6.317,2.617,8.875,8.875,0,0,0,6.317-2.617,8.875,8.875,0,0,0,2.617-6.318,8.876,8.876,0,0,0-2.617-6.318l-27.963-27.963a8.875,8.875,0,0,0-6.317-2.617Z" transform="translate(-2932.467 676.802)" fill="#579bff"/></g></g></g></svg>