<svg xmlns="http://www.w3.org/2000/svg" width="79.798" height="75.912" viewBox="0 0 79.798 75.912"><g transform="translate(-595.994 892.453)"><g transform="translate(633.732 -868.221)"><path d="M868.435-686.574a3.3,3.3,0,0,1-3.291-3.291v-7.359h-7.359a3.3,3.3,0,0,1-3.291-3.291v-7a3.3,3.3,0,0,1,3.291-3.291h7.359v-7.359a3.3,3.3,0,0,1,3.291-3.291h7a3.3,3.3,0,0,1,3.291,3.291v7.359h7.359a3.3,3.3,0,0,1,3.291,3.291v7a3.3,3.3,0,0,1-3.291,3.291h-7.359v7.359a3.3,3.3,0,0,1-3.291,3.291Z" transform="translate(-852.333 723.618)" fill="#c3fdf2"/><path d="M863.6-731.134a1.13,1.13,0,0,1,1.13,1.13v8.39a1.13,1.13,0,0,0,1.13,1.13h8.39a1.13,1.13,0,0,1,1.13,1.13v7a1.13,1.13,0,0,1-1.13,1.13h-8.39a1.13,1.13,0,0,0-1.13,1.13v8.39a1.13,1.13,0,0,1-1.13,1.13h-7a1.13,1.13,0,0,1-1.13-1.13v-8.39a1.13,1.13,0,0,0-1.13-1.13h-8.39a1.13,1.13,0,0,1-1.13-1.13v-7a1.13,1.13,0,0,1,1.13-1.13h8.39a1.13,1.13,0,0,0,1.13-1.13V-730a1.13,1.13,0,0,1,1.13-1.13h7m0-4.322h-7A5.458,5.458,0,0,0,851.144-730v5.2h-5.2a5.458,5.458,0,0,0-5.452,5.452v7a5.458,5.458,0,0,0,5.452,5.452h5.2v5.2a5.458,5.458,0,0,0,5.452,5.452h7a5.458,5.458,0,0,0,5.452-5.452v-5.2h5.2a5.458,5.458,0,0,0,5.452-5.452v-7a5.458,5.458,0,0,0-5.452-5.452h-5.2V-730a5.458,5.458,0,0,0-5.452-5.452Z" transform="translate(-840.494 735.456)" fill="#579bff"/></g><g transform="translate(595.994 -892.453)"><path d="M649-805.827a6.749,6.749,0,0,1-5.219-2.459L616.41-841.424a21.807,21.807,0,0,1-4.916-13.775,21.777,21.777,0,0,1,21.751-21.755A21.583,21.583,0,0,1,649-870.2a21.584,21.584,0,0,1,15.756-6.753A21.778,21.778,0,0,1,686.507-855.2a21.777,21.777,0,0,1-3.234,11.413,2.926,2.926,0,0,1-2.491,1.4h-4.561a2.914,2.914,0,0,1-2.911-2.911v-7.739H659.573v7.739a2.914,2.914,0,0,1-2.911,2.911h-7.739v13.737h7.739a2.914,2.914,0,0,1,2.911,2.911v9.919a2.917,2.917,0,0,1-.667,1.854l-4.687,5.674A6.748,6.748,0,0,1,649-805.827Z" transform="translate(-609.102 879.346)" fill="#174dfd"/><path d="M620.137-887.668a19.324,19.324,0,0,1,15.346,7.559.515.515,0,0,0,.41.2.515.515,0,0,0,.41-.2,19.323,19.323,0,0,1,15.346-7.558A19.362,19.362,0,0,1,671.007-868.3a19.442,19.442,0,0,1-2.888,10.175.519.519,0,0,1-.444.248h-4.561a.519.519,0,0,1-.518-.518v-9.613a.518.518,0,0,0-.518-.518H644.592a.518.518,0,0,0-.518.518v9.613a.518.518,0,0,1-.518.518h-9.613a.518.518,0,0,0-.518.518v17.485a.519.519,0,0,0,.518.519h9.613a.518.518,0,0,1,.518.518v9.919a.519.519,0,0,1-.119.33l-4.687,5.675a4.356,4.356,0,0,1-3.375,1.59,4.356,4.356,0,0,1-3.375-1.59l-27.371-33.139a19.283,19.283,0,0,1-4.368-12.252,19.36,19.36,0,0,1,19.358-19.362m0-4.785a23.994,23.994,0,0,0-9.4,1.9,24.06,24.06,0,0,0-7.673,5.173,24.064,24.064,0,0,0-5.172,7.674,24.006,24.006,0,0,0-1.9,9.4,24.078,24.078,0,0,0,1.448,8.253,24.068,24.068,0,0,0,4,7.028l.007.009.007.009,27.371,33.139a9.133,9.133,0,0,0,7.064,3.327,9.133,9.133,0,0,0,7.064-3.328l4.687-5.675a5.315,5.315,0,0,0,1.214-3.377v-9.919a5.309,5.309,0,0,0-5.3-5.3h-5.347v-8.952h5.347a5.309,5.309,0,0,0,5.3-5.3v-5.347h8.952v5.347a5.309,5.309,0,0,0,5.3,5.3h4.561a5.332,5.332,0,0,0,4.537-2.556,24.135,24.135,0,0,0,3.579-12.652,24.008,24.008,0,0,0-1.9-9.4,24.064,24.064,0,0,0-5.172-7.674,24.061,24.061,0,0,0-7.673-5.174,23.993,23.993,0,0,0-9.4-1.9,23.9,23.9,0,0,0-10.84,2.566,45.162,45.162,0,0,0-4.916,3.288,45.2,45.2,0,0,0-4.915-3.289,23.893,23.893,0,0,0-10.84-2.567Z" transform="translate(-595.994 892.453)" fill="#579bff"/></g></g></svg>