<svg xmlns="http://www.w3.org/2000/svg" width="83.369" height="66.903" viewBox="0 0 83.369 66.903"><g transform="translate(-2828.063 1599.338)"><path d="M0,0H49.845V29.245H0Z" transform="translate(2844.821 -1590.698)" fill="#c3fdf2"/><g transform="translate(2828.063 -1599.338)"><path d="M2843.42-1525.29a3.862,3.862,0,0,1-3.857-3.857v-1.767l.008-.049a3.929,3.929,0,0,1,.058-.461c.009-.053.019-.1.029-.148a3.832,3.832,0,0,1,.178-.586l7.192-18.1v-33.719a3.861,3.861,0,0,1,3.857-3.857h56.362a3.861,3.861,0,0,1,3.857,3.857v33.719l7.107,17.889a3.875,3.875,0,0,1,.366,1.64c0,.07,0,.133-.007.188v1.4a3.862,3.862,0,0,1-3.857,3.857Zm39.878-9.776-.129-.4h-8.207l-.128.4Zm18.514-19.242v-24.89h-45.491v24.89Z" transform="translate(-2837.386 1590.015)" fill="#174dfd"/><path d="M2897.925-1594.983a1.68,1.68,0,0,1,1.68,1.68v34.135l7.29,18.351a1.669,1.669,0,0,1,.182.761c0,.026-.006.049-.007.074v1.512a1.68,1.68,0,0,1-1.68,1.68H2834.1a1.68,1.68,0,0,1-1.68-1.68v-1.586s0,0,0-.007a1.657,1.657,0,0,1,.03-.3c0-.022.008-.044.012-.065a1.7,1.7,0,0,1,.075-.252l7.347-18.493V-1593.3a1.68,1.68,0,0,1,1.68-1.68h56.363m-53.1,33.531h49.845V-1590.7h-49.845v29.245m17.7,19.242h14.449l-1.537-4.752h-11.375l-1.537,4.752m35.406-57.127h-56.363a6.041,6.041,0,0,0-6.034,6.035v33.3l-7.039,17.718a5.978,5.978,0,0,0-.274.894l0,.014,0,.014c-.016.072-.03.143-.043.216-.037.2-.063.4-.081.595l-.021.129v1.951a6.042,6.042,0,0,0,6.035,6.035h71.292a6.041,6.041,0,0,0,6.034-6.035v-1.323c.005-.088.008-.175.008-.263a6.068,6.068,0,0,0-.541-2.5L2903.959-1560v-33.3a6.041,6.041,0,0,0-6.034-6.035Zm-48.749,13h41.136v20.535h-41.136v-20.535Z" transform="translate(-2828.063 1599.338)" fill="#579bff"/></g><g transform="translate(2842.759 -1552.203)"><path d="M4533.781-4380.544l-1.262,3.43h3.771l.388-1.2.76-2.228Z" transform="translate(-4530.696 4380.638)" fill="#c3fdf2"/><path d="M.928,0,0,3.431l3.958.138.4-1.336L4.948.14Z" transform="matrix(0.999, -0.035, 0.035, 0.999, 13.659, 0.173)" fill="#c3fdf2"/><path d="M4533.448-4380.544l-.914,3.374-.015.056h3.569l.271-1.3.445-2.133Z" transform="translate(-4524.696 4380.638)" fill="#c3fdf2"/><path d="M4533.486-4380.544l-1.341,3.43h4.09l.538-1.5.592-1.933Z" transform="translate(-4532.146 4386.861)" fill="#c3fdf2"/><path d="M1.1,0,0,3.573l4.1.143.532-1.64L5.22.144Z" transform="matrix(0.999, -0.035, 0.035, 0.999, 12.041, 6.314)" fill="#c3fdf2"/><path d="M4533.343-4380.544l-1.185,3.43,4.028.138.394-1.421.625-2.147Z" transform="translate(-4526.097 4386.861)" fill="#c3fdf2"/></g><g transform="translate(2864.847 -1552.339)"><path d="M4536.176-4380.544l1.262,3.43h-3.771l-.388-1.2-.76-2.228Z" transform="translate(-4507.65 4380.774)" fill="#c3fdf2"/><path d="M.945,3.707,0,.138,3.958,0l.4,1.336.56,2.231Z" transform="matrix(-0.999, -0.035, 0.035, -0.999, 17.827, 3.876)" fill="#c3fdf2"/><path d="M.928,3.569,0,.138,3.958,0,4.78,3.434Z" transform="matrix(-0.999, -0.035, 0.035, -0.999, 9.827, 3.876)" fill="#c3fdf2"/><path d="M.928,3.564,0,.134,3.83,0l-.8,3.491Z" transform="matrix(-0.999, -0.035, 0.035, -0.999, 3.827, 3.81)" fill="#c3fdf2"/><path d="M4535.875-4380.544l.914,3.374.015.056h-3.569l-.271-1.3-.445-2.133Z" transform="translate(-4513.016 4380.774)" fill="#c3fdf2"/><path d="M4536.024-4380.544l1.341,3.43h-4.09l-.538-1.5-.592-1.933Z" transform="translate(-4505.754 4386.998)" fill="#c3fdf2"/><path d="M1.1,3.716,0,.143,4.1,0l.532,1.64L5.22,3.573Z" transform="matrix(-0.999, -0.035, 0.035, -0.999, 19.44, 10.165)" fill="#c3fdf2"/><path d="M4536.02-4380.544l1.185,3.43-4.028.138-.394-1.421-.625-2.147Z" transform="translate(-4511.655 4386.998)" fill="#c3fdf2"/></g></g></svg>