<svg xmlns="http://www.w3.org/2000/svg" width="85.009" height="75.388" viewBox="0 0 85.009 75.388"><g transform="translate(-5208.366 2070.953)"><g transform="translate(5220.119 -2011.091)"><path d="M5368.274-1587a11.948,11.948,0,0,1-7.5-2.557,4.29,4.29,0,0,0-3.033-1.145,4.294,4.294,0,0,0-3.033,1.145,11.946,11.946,0,0,1-7.5,2.557,11.944,11.944,0,0,1-7.5-2.557,4.3,4.3,0,0,0-3.034-1.145,4.3,4.3,0,0,0-3.033,1.145,11.943,11.943,0,0,1-7.5,2.557,11.943,11.943,0,0,1-7.5-2.557,4.436,4.436,0,0,0-2.5-1.124,2.775,2.775,0,0,1-2.564-2.78v-2.191a2.794,2.794,0,0,1,2.793-2.789c.063,0,.127,0,.191.007a11.866,11.866,0,0,1,6.543,2.526,4.3,4.3,0,0,0,3.034,1.145,4.294,4.294,0,0,0,3.033-1.145,11.943,11.943,0,0,1,7.5-2.558,11.943,11.943,0,0,1,7.5,2.557,4.3,4.3,0,0,0,3.034,1.145,4.3,4.3,0,0,0,3.033-1.145,11.943,11.943,0,0,1,7.5-2.558,11.944,11.944,0,0,1,7.5,2.557,4.3,4.3,0,0,0,3.033,1.145,4.3,4.3,0,0,0,3.034-1.145,11.872,11.872,0,0,1,6.545-2.526c.064,0,.128-.007.191-.007a2.794,2.794,0,0,1,2.793,2.789v2.191a2.776,2.776,0,0,1-2.564,2.78,4.436,4.436,0,0,0-2.5,1.124A11.948,11.948,0,0,1,5368.274-1587Z" transform="translate(-5311.556 1600.495)" fill="#c3fdf2"/><path d="M5344.272-1609.9a9.894,9.894,0,0,1,6.331,2.188,6.232,6.232,0,0,0,4.2,1.515,6.233,6.233,0,0,0,4.2-1.515,9.938,9.938,0,0,1,5.515-2.161l.054,0a.76.76,0,0,1,.762.758v2.191a.761.761,0,0,1-.7.756,6.361,6.361,0,0,0-3.5,1.487,9.894,9.894,0,0,1-6.331,2.188,9.894,9.894,0,0,1-6.331-2.188,6.23,6.23,0,0,0-4.2-1.514,6.229,6.229,0,0,0-4.2,1.514,9.9,9.9,0,0,1-6.331,2.188,9.892,9.892,0,0,1-6.331-2.188,6.231,6.231,0,0,0-4.2-1.514,6.23,6.23,0,0,0-4.2,1.514,9.893,9.893,0,0,1-6.33,2.188,9.889,9.889,0,0,1-6.331-2.188,6.359,6.359,0,0,0-3.5-1.487.761.761,0,0,1-.7-.756v-2.191a.76.76,0,0,1,.763-.758l.053,0a9.945,9.945,0,0,1,5.516,2.161,6.229,6.229,0,0,0,4.2,1.515,6.23,6.23,0,0,0,4.2-1.515,9.894,9.894,0,0,1,6.331-2.188,9.891,9.891,0,0,1,6.33,2.188,6.232,6.232,0,0,0,4.2,1.515,6.23,6.23,0,0,0,4.2-1.515,9.889,9.889,0,0,1,6.33-2.188m0-4.061a13.929,13.929,0,0,0-8.666,2.927c-1.04.732-1.1.776-1.865.776s-.824-.044-1.865-.775a13.925,13.925,0,0,0-8.666-2.927,13.927,13.927,0,0,0-8.666,2.926c-1.041.732-1.1.776-1.865.776s-.825-.044-1.866-.775a14.009,14.009,0,0,0-7.574-2.891c-.108-.007-.22-.011-.329-.011a4.8,4.8,0,0,0-3.39,1.39,4.781,4.781,0,0,0-1.434,3.429v2.191a4.8,4.8,0,0,0,1.294,3.285,4.825,4.825,0,0,0,3.131,1.518c.427.036.507.063,1.5.761a13.923,13.923,0,0,0,8.667,2.927,13.924,13.924,0,0,0,8.665-2.927c1.041-.732,1.1-.776,1.866-.776s.824.044,1.864.775a13.926,13.926,0,0,0,8.667,2.927,13.927,13.927,0,0,0,8.666-2.927c1.041-.732,1.1-.776,1.865-.776s.825.044,1.865.775a13.929,13.929,0,0,0,8.667,2.927,13.928,13.928,0,0,0,8.667-2.927c.994-.7,1.074-.726,1.5-.762a4.823,4.823,0,0,0,3.131-1.518,4.8,4.8,0,0,0,1.294-3.285v-2.191a4.826,4.826,0,0,0-4.822-4.819c-.11,0-.222,0-.33.011a14.011,14.011,0,0,0-7.574,2.891c-1.041.732-1.1.775-1.866.775s-.825-.044-1.865-.775a13.925,13.925,0,0,0-8.667-2.927Z" transform="translate(-5298.086 1613.965)" fill="#579bff"/></g><rect width="7.194" height="7.194" transform="translate(5220.588 -2041.065)" fill="#c3fdf2"/><g transform="translate(5224.937 -2070.953)"><g transform="translate(0)"><path d="M5401.523-1992.543a4.725,4.725,0,0,1-3.366-1.262,12.452,12.452,0,0,0-7.811-2.668,12.452,12.452,0,0,0-7.811,2.667,4.726,4.726,0,0,1-3.367,1.262,4.725,4.725,0,0,1-3.366-1.262,12.448,12.448,0,0,0-7.811-2.667,12.449,12.449,0,0,0-7.811,2.668,4.724,4.724,0,0,1-3.366,1.262,4.726,4.726,0,0,1-3.367-1.262c-.443-.312-.947-.666-1.543-1.016a3.126,3.126,0,0,1-1.544-2.73,3.1,3.1,0,0,1,1.6-2.673,56.159,56.159,0,0,1,8.826-3.923,56.236,56.236,0,0,1,17.656-3.061l7.856-21.584a18.333,18.333,0,0,0-2.383-.156h-.179l-.294,0a3.011,3.011,0,0,1-1.479-.389l-.23-.13a31.783,31.783,0,0,0-9.843-3.583l-1.147-.214a3,3,0,0,1-2.061-1.464,3,3,0,0,1-.215-2.519l.4-1.1A23.729,23.729,0,0,1,5391.1-2053.9a23.581,23.581,0,0,1,4.2.378,3.017,3.017,0,0,1,2.809-1.934,3,3,0,0,1,1.028.182l1.857.676a3.01,3.01,0,0,1,1.814,3.8,23.373,23.373,0,0,1,9.7,10.543,23.488,23.488,0,0,1,.789,18.078l-.4,1.1a3.017,3.017,0,0,1-2.827,1.979h0a3.01,3.01,0,0,1-1.477-.389l-1.016-.574a31.783,31.783,0,0,0-9.843-3.582l-.261-.049a3.013,3.013,0,0,1-1.4-.671l-.2-.173a18.293,18.293,0,0,0-2.062-1.529l-7.045,19.356a56.145,56.145,0,0,1,10.79,2.556,56.181,56.181,0,0,1,8.825,3.924,3.105,3.105,0,0,1,1.6,2.673,3.127,3.127,0,0,1-1.544,2.73c-.6.349-1.1.7-1.545,1.016A4.725,4.725,0,0,1,5401.523-1992.543Z" transform="translate(-5348.332 2057.483)" fill="#174dfd"/><path d="M5384.641-2066.892a.988.988,0,0,1,.334.059l1.857.677a.977.977,0,0,1,.584,1.251l-.293.806a.972.972,0,0,0,.461,1.2,21.447,21.447,0,0,1,9.619,10.045,21.47,21.47,0,0,1,.721,16.525l-.4,1.1a.977.977,0,0,1-.919.643.968.968,0,0,1-.479-.127l-1.016-.574a33.815,33.815,0,0,0-10.471-3.811l-.26-.049a.973.973,0,0,1-.456-.218l-.2-.172a20.474,20.474,0,0,0-3.471-2.4.969.969,0,0,0-.466-.12.979.979,0,0,0-.92.644l-7.933,21.795a.976.976,0,0,0,.813,1.3,53.986,53.986,0,0,1,11.676,2.62,53.984,53.984,0,0,1,8.506,3.781,1.078,1.078,0,0,1,.012,1.875c-.667.39-1.222.78-1.687,1.107-1.148.808-1.269.892-2.2.892s-1.049-.084-2.2-.892a14.439,14.439,0,0,0-8.979-3.037,14.44,14.44,0,0,0-8.979,3.037c-1.148.808-1.268.892-2.2.892s-1.049-.084-2.2-.892a14.432,14.432,0,0,0-8.978-3.037,14.434,14.434,0,0,0-8.979,3.037c-1.148.808-1.269.892-2.2.892s-1.049-.084-2.2-.892c-.465-.327-1.021-.717-1.686-1.107a1.078,1.078,0,0,1,.012-1.874,53.962,53.962,0,0,1,8.506-3.781,54.252,54.252,0,0,1,17.721-2.955h.007a.98.98,0,0,0,.924-.642l8.541-23.466a.976.976,0,0,0-.723-1.292,20.39,20.39,0,0,0-4-.4h-.2l-.265,0h-.01a.972.972,0,0,1-.479-.126l-.231-.13a33.813,33.813,0,0,0-10.47-3.811l-1.147-.214a.976.976,0,0,1-.739-1.293l.4-1.1a21.646,21.646,0,0,1,20.329-14.22,21.442,21.442,0,0,1,4.656.512,1,1,0,0,0,.217.024.976.976,0,0,0,.92-.641l.294-.809a.977.977,0,0,1,.917-.642m0-4.061a5.055,5.055,0,0,0-3.819,1.756,25.5,25.5,0,0,0-3.185-.2,25.64,25.64,0,0,0-14.579,4.536,25.472,25.472,0,0,0-9.566,12.356l-.4,1.1a5.028,5.028,0,0,0,.359,4.221,5.027,5.027,0,0,0,3.453,2.454l1.147.213a29.764,29.764,0,0,1,9.216,3.354l.231.13a5.043,5.043,0,0,0,2.477.651h.013l-6.447,17.711a58.2,58.2,0,0,0-16.883,3.137,58.231,58.231,0,0,0-9.146,4.066,5.14,5.14,0,0,0-2.649,4.425,5.161,5.161,0,0,0,2.548,4.508c.522.306.99.635,1.4.924a6.7,6.7,0,0,0,4.534,1.631,6.7,6.7,0,0,0,4.533-1.631,10.386,10.386,0,0,1,6.644-2.3,10.386,10.386,0,0,1,6.643,2.3,6.7,6.7,0,0,0,4.534,1.631,6.7,6.7,0,0,0,4.534-1.631,10.388,10.388,0,0,1,6.644-2.3,10.381,10.381,0,0,1,6.642,2.3,6.7,6.7,0,0,0,4.535,1.632,6.7,6.7,0,0,0,4.534-1.631c.413-.29.879-.618,1.4-.925a5.161,5.161,0,0,0,2.548-4.508,5.138,5.138,0,0,0-2.649-4.425,58.2,58.2,0,0,0-9.146-4.066,58.072,58.072,0,0,0-8.7-2.26l5.266-14.466a5.04,5.04,0,0,0,2.326,1.1l.261.048a29.772,29.772,0,0,1,9.215,3.354l1.016.574a5.042,5.042,0,0,0,2.476.652,5.053,5.053,0,0,0,4.734-3.314l.4-1.1a25.5,25.5,0,0,0-.857-19.63,25.675,25.675,0,0,0-4.742-6.939,25.4,25.4,0,0,0-4.606-3.79,5.044,5.044,0,0,0-3.312-4.668l-1.859-.677a5.021,5.021,0,0,0-1.722-.3Z" transform="translate(-5334.863 2070.953)" fill="#579bff"/></g></g><path d="M5210.331-1827.441h2.089a1.965,1.965,0,0,0,1.965-1.965,1.965,1.965,0,0,0-1.965-1.965h-2.089a1.965,1.965,0,0,0-1.964,1.965A1.965,1.965,0,0,0,5210.331-1827.441Z" transform="translate(0 -208.199)" fill="#579bff"/><path d="M5285.327-1853.571a6.61,6.61,0,0,0,6.6-6.6,6.61,6.61,0,0,0-6.6-6.6,6.61,6.61,0,0,0-6.6,6.6A6.61,6.61,0,0,0,5285.327-1853.571Zm0-9.276a2.675,2.675,0,0,1,2.672,2.673,2.676,2.676,0,0,1-2.672,2.673,2.675,2.675,0,0,1-2.672-2.673A2.675,2.675,0,0,1,5285.327-1862.846Z" transform="translate(-61.142 -177.432)" fill="#c3fdf2"/><path d="M5316.091-1931.307a1.965,1.965,0,0,0,1.965-1.965v-2.09a1.965,1.965,0,0,0-1.965-1.965,1.965,1.965,0,0,0-1.964,1.965v2.089A1.964,1.964,0,0,0,5316.091-1931.307Z" transform="translate(-91.907 -116.123)" fill="#579bff"/><path d="M5241.264-1901.462a1.965,1.965,0,0,0,2.779,0,1.965,1.965,0,0,0,0-2.779l-1.478-1.477a1.964,1.964,0,0,0-2.778,0,1.965,1.965,0,0,0,0,2.779Z" transform="translate(-26.804 -143.09)" fill="#579bff"/><path d="M5241.264-1767.156l-1.477,1.477a1.964,1.964,0,0,0,0,2.779,1.964,1.964,0,0,0,2.778,0l1.478-1.477a1.964,1.964,0,0,0,0-2.779A1.964,1.964,0,0,0,5241.264-1767.156Z" transform="translate(-26.804 -263.502)" fill="#579bff"/><path d="M5314.127-1739.4v2.089a1.964,1.964,0,0,0,1.964,1.965,1.965,1.965,0,0,0,1.965-1.965v-2.089a1.965,1.965,0,0,0-1.965-1.965A1.964,1.964,0,0,0,5314.127-1739.4Z" transform="translate(-91.907 -286.411)" fill="#579bff"/><path d="M5378.339-1767.156a1.964,1.964,0,0,0,0,2.779l1.477,1.477a1.965,1.965,0,0,0,2.779,0,1.965,1.965,0,0,0,0-2.779l-1.478-1.477A1.964,1.964,0,0,0,5378.339-1767.156Z" transform="translate(-147.207 -263.502)" fill="#579bff"/><path d="M5404.123-1829.407a1.965,1.965,0,0,0,1.964,1.965h2.09a1.965,1.965,0,0,0,1.964-1.965,1.965,1.965,0,0,0-1.964-1.965h-2.09A1.965,1.965,0,0,0,5404.123-1829.407Z" transform="translate(-170.114 -208.198)" fill="#579bff"/><path d="M5381.117-1901.462l1.478-1.477a1.966,1.966,0,0,0,0-2.779,1.965,1.965,0,0,0-2.779,0l-1.477,1.477a1.965,1.965,0,0,0,0,2.779,1.964,1.964,0,0,0,2.778,0Z" transform="translate(-147.207 -143.09)" fill="#579bff"/></g></svg>