<svg xmlns="http://www.w3.org/2000/svg" width="92.008" height="73.421" viewBox="0 0 92.008 73.421"><g transform="translate(-4521.51 1182.964)"><g transform="translate(4521.51 -1155.388)"><g transform="translate(0 0)"><path d="M4580.529-954.555c-11.429,0-22.219-3.618-30.38-10.187-8.473-6.819-13.14-15.98-13.14-25.8a4.9,4.9,0,0,1,4.894-4.894h77.251a4.9,4.9,0,0,1,4.894,4.894c0,9.815-4.666,18.976-13.139,25.8C4602.748-958.173,4591.958-954.555,4580.529-954.555Z" transform="translate(-4534.525 997.916)" fill="#174dfd"/><path d="M4606.14-1005.962a2.409,2.409,0,0,1,2.408,2.409c0,9.048-4.336,17.522-12.211,23.86-7.722,6.215-17.958,9.638-28.822,9.638s-21.1-3.423-28.824-9.638c-7.875-6.338-12.212-14.812-12.212-23.86a2.409,2.409,0,0,1,2.409-2.409h77.251m0-4.969h-77.251a7.387,7.387,0,0,0-7.378,7.378,33.1,33.1,0,0,0,3.7,15.21,38.794,38.794,0,0,0,10.367,12.521c8.6,6.923,19.944,10.736,31.939,10.736s23.336-3.813,31.938-10.736a38.775,38.775,0,0,0,10.367-12.521,33.1,33.1,0,0,0,3.7-15.21,7.386,7.386,0,0,0-7.378-7.378Z" transform="translate(-4521.51 1010.931)" fill="#579bff"/></g></g><g transform="translate(4588.375 -1182.964)"><g transform="translate(0)"><path d="M4963.108-1146.768c-.357-.191-.718-.366-1.074-.518l-.97-.416-.375-.988a13.27,13.27,0,0,0-1.451-2.777l-1.076-1.574,10.926-12.719a4.889,4.889,0,0,1,3.713-1.7,4.895,4.895,0,0,1,3.187,1.181,4.9,4.9,0,0,1,.524,6.9l-11.647,13.559Z" transform="translate(-4955.037 1169.949)" fill="#174dfd"/><path d="M4956.423-1178a2.4,2.4,0,0,1,1.569.582,2.409,2.409,0,0,1,.257,3.4l-10.346,12.044q-.622-.334-1.27-.613a15.746,15.746,0,0,0-1.723-3.3l9.684-11.273a2.4,2.4,0,0,1,1.828-.839m0-4.969a7.373,7.373,0,0,0-5.6,2.57l-9.683,11.273-2.485,2.892,2.15,3.148a10.8,10.8,0,0,1,1.18,2.257l.748,1.975,1.941.832c.289.124.584.266.876.423l3.518,1.889,2.6-3.029,10.346-12.044a7.387,7.387,0,0,0-.789-10.4,7.383,7.383,0,0,0-4.807-1.781Z" transform="translate(-4938.657 1182.964)" fill="#579bff"/></g></g><g transform="translate(4529.504 -1181.85)"><g transform="translate(0)"><path d="M4597.884-1135.4l2.4-3.509a14.557,14.557,0,0,1,8.077-5.806,13.289,13.289,0,0,1,13.158-11.549,13.245,13.245,0,0,1,4.169.678,13.37,13.37,0,0,1,11.364-6.427,13.3,13.3,0,0,1,12.88,10.07,13.411,13.411,0,0,1,8.5,8.921,13.39,13.39,0,0,1,5.867,3.905l3.235,3.717Z" transform="translate(-4593.636 1164.26)" fill="#c3fdf2"/><path d="M4614.793-1171.528a11.043,11.043,0,0,1,10.935,9.611,11.059,11.059,0,0,1,8.556,8.948,11.034,11.034,0,0,1,6.06,3.566h-60.466a12.256,12.256,0,0,1,8.357-5.233c0-.039,0-.078,0-.116a11.038,11.038,0,0,1,11.026-11.026,11.031,11.031,0,0,1,5.237,1.33,11.043,11.043,0,0,1,10.3-7.08m0-4.488a15.416,15.416,0,0,0-8.885,2.8,15.587,15.587,0,0,0-3.437,3.289,15.411,15.411,0,0,0-3.211-.34,15.541,15.541,0,0,0-15.131,12.08,16.824,16.824,0,0,0-7.958,6.254l-4.79,7.018H4650.2l-6.47-7.435a15.654,15.654,0,0,0-5.76-4.152,15.479,15.479,0,0,0-3.359-5.362,15.507,15.507,0,0,0-5.1-3.536,15.558,15.558,0,0,0-14.722-10.615Z" transform="translate(-4571.381 1176.016)" fill="#579bff"/></g></g></g></svg>