<svg xmlns="http://www.w3.org/2000/svg" width="71.346" height="75.318" viewBox="0 0 71.346 75.318"><g transform="translate(-209.877 -791.63)"><path d="M279.357,810.456a28.16,28.16,0,0,0-14.075-15.272,35.944,35.944,0,0,0-20.449-3.242,34.094,34.094,0,0,0-14.463,5.324,32.236,32.236,0,0,0-14.377,23.665,18.085,18.085,0,0,0,.285,4.168,10.819,10.819,0,0,1,.163,3.739v0c-.053.215-.656,2.23-5.247,6.775a4.442,4.442,0,0,0,2.141,7.487c.655.15,1.249.281,1.767.4l.49.109c.029,3.6.076,7.835.142,8.627a6.173,6.173,0,0,0,2.349,4.475c1.914,1.5,4.807,1.986,8.37,1.415,2.747-.442,4.381.254,4.857,2.069.043.358.168,1.459.25,2.662a4.4,4.4,0,0,0,4.377,4.091h28.39a4.395,4.395,0,0,0,4.389-4.39V854.7c0-5.539.871-9.306,2.587-11.2a38.891,38.891,0,0,0,8.8-15.251A27.638,27.638,0,0,0,279.357,810.456Z" transform="translate(0 0)" fill="#4591ff"/><path d="M283.809,833.667a34.471,34.471,0,0,1-7.819,13.487c-2.511,2.768-3.732,7.4-3.732,14.163v7.831H243.914c-.108-1.584-.28-2.956-.287-3.014l-.014-.113-.026-.111a7.059,7.059,0,0,0-3.172-4.536,9.6,9.6,0,0,0-6.707-.992c-2.252.361-4.057.167-4.952-.533a1.77,1.77,0,0,1-.67-1.368c-.032-.384-.085-2.9-.13-8.746a3.826,3.826,0,0,0-2.994-3.718c-.279-.063-.6-.134-.952-.212l-.016,0a1.091,1.091,0,0,1-.6-1.767c1.745-2.071,4.893-5.959,5.28-7.508a13.94,13.94,0,0,0-.077-5.453,14.783,14.783,0,0,1-.254-3.148,26.46,26.46,0,0,1,3.9-11.534,29.016,29.016,0,0,1,8.523-8.84,29.669,29.669,0,0,1,12.584-4.62,31.494,31.494,0,0,1,17.915,2.817,23.823,23.823,0,0,1,11.92,12.9A23.313,23.313,0,0,1,283.809,833.667Z" transform="translate(-7.955 -6.614)" fill="#174dfd"/><path d="M289.388,837.6a10.441,10.441,0,0,0-11.182,2.158,10.494,10.494,0,0,0-11.2-2.143,11.675,11.675,0,0,0-6.5,6.657,12.865,12.865,0,0,0,.339,10.107c3.407,7.264,10.413,13.367,15.69,17.206a2.838,2.838,0,0,0,3.35,0c7.639-5.559,12.908-11.352,15.66-17.221a12.862,12.862,0,0,0,.339-10.107A11.677,11.677,0,0,0,289.388,837.6Z" transform="translate(-29.848 -27.094)" fill="#4591ff"/><path d="M298.165,859.122c-1.612,3.439-5.232,8.756-13.339,14.845-8.151-6.118-11.767-11.416-13.369-14.831a8.433,8.433,0,0,1-.225-6.624,7.306,7.306,0,0,1,4.051-4.177,6.061,6.061,0,0,1,2.3-.47,7.087,7.087,0,0,1,5.118,2.619,2.843,2.843,0,0,0,2.126.956h.006a2.845,2.845,0,0,0,2.128-.965c1.247-1.419,3.865-3.584,7.38-2.155a7.3,7.3,0,0,1,4.052,4.178A8.432,8.432,0,0,1,298.165,859.122Z" transform="translate(-36.461 -33.724)" fill="#c3fdf2"/></g></svg>