<svg xmlns="http://www.w3.org/2000/svg" width="74.696" height="74.696" viewBox="0 0 74.696 74.696"><g transform="translate(-447.063 -825.222)"><g transform="translate(447.063 825.222)"><circle cx="37.348" cy="37.348" r="37.348" fill="#4591ff"/></g><g transform="translate(451.644 829.803)"><path d="M32.767,0A32.767,32.767,0,1,1,0,32.767,32.767,32.767,0,0,1,32.767,0Z" fill="#174dfd"/></g><g transform="translate(462.907 841.067)"><path d="M509.948,904.781a16.674,16.674,0,1,1,16.674-16.674A16.674,16.674,0,0,1,509.948,904.781Zm0-30.375a13.7,13.7,0,1,0,13.7,13.7,13.7,13.7,0,0,0-13.7-13.7Z" transform="translate(-488.444 -866.604)" fill="#4591ff"/><path d="M527.957,860.4h2.972v12.63h-2.972Z" transform="translate(-507.939 -860.404)" fill="#c3fdf2"/><path d="M527.957,929.774h2.972V942.4h-2.972Z" transform="translate(-507.939 -899.397)" fill="#c3fdf2"/><path d="M551.614,906.117h12.63v2.971h-12.63Z" transform="translate(-521.237 -886.099)" fill="#4591ff"/><path d="M482.244,906.117h12.63v2.971h-12.63Z" transform="translate(-482.244 -886.099)" fill="#4591ff"/><circle cx="4.726" cy="4.726" r="4.726" transform="translate(16.778 16.778)" fill="#c3fdf2"/></g></g></svg>