<svg height="69.245" viewBox="0 0 86.412 69.245" width="86.412" xmlns="http://www.w3.org/2000/svg"><g stroke-linecap="round"><g fill="#174dfd" transform="translate(-2718.731 -500.008)"><path d="m2766.63818359 565.12335205-1.85742187-1.16296387c-2.98193359-1.86694336-5.80004883-3.73901367-8.3762207-5.56408691l-3.8046875-2.69543457 3.65039062-2.90075684c3.10986328-2.4710083 5.68554688-4.91601562 7.65527344-7.26708984 3.26879883-3.90118408 4.92626953-7.65930176 4.92626953-11.17004395 0-6.57141113-5.34619141-11.91760253-11.91748047-11.91760253-2.82958984 0-5.57568359 1.01342773-7.73242187 2.85351562l-2.27172852 1.93829346-2.27172852-1.93823242c-1.03515625-.88317872-2.2915039-1.60968018-3.63330078-2.10101319-1.34106445-.49108887-2.77612304-.75067138-4.15014648-.75067138-.17358399 0-.34863281.00415039-.52026367.01226806l-5.21044922.24664307 1.74707031-4.91497803c.73266602-2.06103516 1.77490234-3.99395752 3.09814453-5.74499512 1.30834961-1.7310791 2.8647461-3.25039673 4.62670899-4.51574707 3.66381836-2.63153076 7.99169922-4.02249145 12.51538086-4.02249145 3.14916992 0 6.18554687.66802978 9.02416992 1.98553467 1.62402344.75381469 3.12963867 1.6939392 4.5024414 2.81011962 1.37280274-1.11618042 2.87817383-2.05630493 4.50244141-2.81011962 2.83862305-1.31750489 5.87475586-1.98553467 9.02392578-1.98553467 2.89794922 0 5.71118164.56835937 8.36157227 1.68933105 2.55786133 1.0819397 4.85449218 2.63012696 6.82592773 4.60150147s3.51953125 4.26797485 4.6015625 6.82595825c1.12084961 2.65014648 1.68920899 5.46325684 1.68920899 8.36120605 0 3.00872803-.65771485 6.08428955-1.95458985 9.14123536-1.30834961 3.08435058-3.31323242 6.24926757-5.95874023 9.40673828-2.68115235 3.19995117-6.12084961 6.51275634-10.22338867 9.84631347-4.20654297 3.41796875-9.25683594 6.97766114-15.01049805 10.58013916z"/><path d="m2753.11157227 507.00793457c-7.81640625 0-14.46606446 4.9888916-16.94238282 11.95550537.22827149-.01080322.45703125-.01617431.68579102-.01617431 3.62158203 0 7.30322266 1.34118652 10.05517578 3.68908691 2.7734375-2.36639404 6.31567383-3.690979 10.00415039-3.690979 8.5012207 0 15.41748047 6.91613769 15.41748047 15.41760253 0 4.3546753-1.93188477 8.86895752-5.7434082 13.41790772-2.13085938 2.54315185-4.83374024 5.11590576-8.16064453 7.75946045 2.50219726 1.77264404 5.23339843 3.58959961 8.21044921 5.45355224 23.08300782-14.45269775 31.50463868-26.09863281 31.50463868-36.00793457 0-9.92877197-8.04882813-17.97802734-17.97827149-17.97802734-5.39477539 0-10.23095703 2.37976074-13.52636719 6.1428833-3.29541015-3.76312256-8.13159179-6.1428833-13.52661132-6.1428833m0-7c4.84399414 0 9.53173828 1.4095459 13.52661132 3.98492432 3.99487305-2.57537842 8.68261719-3.98492432 13.52636719-3.98492432 13.77294922 0 24.97827149 11.20507813 24.97827149 24.97802734 0 13.75286866-11.0546875 27.07989502-34.78979493 41.94091797l-3.71484375 2.3258667-3.71459961-2.32580566c-3.09765625-1.93939209-5.93896484-3.83032227-8.54248046-5.67474365l-7.609375-5.39080811 7.30126953-5.80151367c2.92553711-2.324646 5.33105468-4.60400391 7.14990234-6.7746582 2.7265625-3.25402833 4.10888672-6.25585938 4.10888672-8.92224122 0-4.64147949-3.77612305-8.41760253-8.41748047-8.41760253-1.99755859 0-3.93701172.71594238-5.46069336 2.01605224l-4.54345703 3.87658692-4.54345703-3.87652588c-1.47827149-1.26123047-3.53857422-2.01422119-5.51171875-2.01422119l-9.91723633.00006103 2.63574219-9.32836914c3.53173828-9.93554688 12.9909668-16.61102295 23.53808594-16.61102295z" fill="#4591ff"/></g><g fill="#c3fdf2" transform="translate(-2655.366 -598.233)"><path d="m2683.54492188 660.86297607-1.88476563-1.20465087c-7.69433594-4.91748047-13.48925781-9.67120362-17.22387695-14.12902832-3.74829102-4.47351075-5.5703125-8.7064209-5.5703125-12.94055176 0-8.09167481 6.58300781-14.67474366 14.67480468-14.67474366 3.72827149 0 7.29907227 1.42156983 10.0041504 3.94354249 2.70581054-2.52191163 6.27636718-3.94354249 10.00415039-3.94354249 8.09155273 0 14.67456054 6.58306885 14.67456054 14.67474366 0 4.23449707-1.82202148 8.46746826-5.56982422 12.94067383-3.73486328 4.45776367-9.52978515 9.21142578-17.22412109 14.12890625z"/><path d="m2683.54492188 656.70922852c7.39477539-4.72613526 12.9177246-9.24017334 16.42602539-13.42761231 3.19824218-3.81713867 4.75268554-7.31488037 4.75268554-10.69287109 0-6.1616211-5.01269531-11.17474366-11.17456054-11.17474366-3.21801758 0-6.28247071 1.39215088-8.40820313 3.81921387l-1.59594726 1.82287598-1.59594727-1.82287598c-2.12548828-2.42706299-5.18994141-3.81921387-8.40820313-3.81921387-6.16210937 0-11.17480468 5.01312256-11.17480468 11.17474366 0 3.37811279 1.55493164 6.87573242 4.75317383 10.69287109 3.50805664 4.1873169 9.03076171 8.70129395 16.42578125 13.42761231m0 8.30755615-3.7697754-2.40930176c-7.9946289-5.10961914-14.05810546-10.0993042-18.02172851-14.83050537-4.2980957-5.12969971-6.38745117-10.09783936-6.38745117-15.18823242 0-10.02160645 8.15307617-18.17474366 18.17480468-18.17474366 3.59033204 0 7.0625 1.06402588 10.00439454 3.00512696 2.94213867-1.94134522 6.41381836-3.00512696 10.00390625-3.00512696 10.02148437 0 18.17456054 8.15313721 18.17456054 18.17474366 0 5.09075927-2.08935547 10.05895996-6.38720703 15.18847656-3.96362305 4.73101807-10.02709961 9.72070312-18.02172851 14.83026123z" fill="#579bff"/></g></g></svg>