<svg xmlns="http://www.w3.org/2000/svg" width="66.159" height="82.168" viewBox="0 0 66.159 82.168"><g transform="translate(-3911.912 1578.952)"><g transform="translate(3935.632 -1554.325)"><g transform="translate(0 0)"><g transform="translate(-4178.356 1405.343)" fill="#174dfd" stroke-miterlimit="10"><path d="M 4208.30810546875 -1354.046630859375 C 4208.30810546875 -1354.046630859375 4208.30810546875 -1354.046630859375 4208.30810546875 -1354.046630859375 C 4208.30810546875 -1354.046630859375 4208.30810546875 -1354.046630859375 4208.30810546875 -1354.046630859375 L 4190.7490234375 -1354.046630859375 C 4188.49169921875 -1354.046630859375 4186.23486328125 -1354.417358398438 4184.0419921875 -1355.148681640625 L 4177.568359375 -1357.296752929688 L 4175.85595703125 -1357.865112304688 L 4175.85595703125 -1359.669555664062 L 4175.85595703125 -1386.758666992188 L 4175.85595703125 -1388.750244140625 L 4177.796875 -1389.195434570312 C 4180.39599609375 -1389.791381835938 4182.5146484375 -1391.53662109375 4184.2744140625 -1394.530639648438 C 4186.06884765625 -1397.58349609375 4187.19775390625 -1401.461669921875 4187.9814453125 -1404.508178710938 C 4188.20703125 -1405.477661132812 4188.791015625 -1406.349243164062 4189.63134765625 -1406.9677734375 C 4190.39794921875 -1407.5322265625 4191.3134765625 -1407.843017578125 4192.20849609375 -1407.843017578125 L 4193.33154296875 -1407.843017578125 C 4197.80712890625 -1407.843017578125 4201.4482421875 -1404.202270507812 4201.4482421875 -1399.727172851562 L 4201.4482421875 -1399.529541015625 C 4201.44873046875 -1396.070922851562 4201.44921875 -1393.748291015625 4200.09765625 -1388.998413085938 L 4212.0517578125 -1388.998413085938 C 4215.49462890625 -1388.998413085938 4218.29541015625 -1386.197387695312 4218.29541015625 -1382.75439453125 C 4218.29541015625 -1381.35107421875 4217.830078125 -1380.05419921875 4217.04541015625 -1379.010375976562 C 4217.830078125 -1377.966552734375 4218.29541015625 -1376.669799804688 4218.29541015625 -1375.266479492188 C 4218.29541015625 -1373.863159179688 4217.830078125 -1372.566284179688 4217.04541015625 -1371.5224609375 C 4217.830078125 -1370.478637695312 4218.29541015625 -1369.181762695312 4218.29541015625 -1367.778442382812 C 4218.29541015625 -1365.136962890625 4216.64697265625 -1362.873291015625 4214.32421875 -1361.962524414062 C 4214.47265625 -1361.43017578125 4214.5517578125 -1360.869506835938 4214.5517578125 -1360.29052734375 C 4214.5517578125 -1358.622802734375 4213.90234375 -1357.054931640625 4212.72314453125 -1355.87548828125 C 4211.5439453125 -1354.696166992188 4209.97607421875 -1354.046630859375 4208.30810546875 -1354.046630859375 Z" stroke="none"/><path d="M 4208.30810546875 -1356.546630859375 C 4210.37548828125 -1356.546508789062 4212.0517578125 -1358.223022460938 4212.0517578125 -1360.29052734375 C 4212.0517578125 -1362.358276367188 4210.37548828125 -1364.034423828125 4208.30810546875 -1364.034423828125 L 4212.0517578125 -1364.034423828125 C 4214.11083984375 -1364.034423828125 4215.79541015625 -1365.71923828125 4215.79541015625 -1367.778442382812 C 4215.79541015625 -1369.837646484375 4214.11083984375 -1371.5224609375 4212.0517578125 -1371.5224609375 C 4214.11083984375 -1371.5224609375 4215.79541015625 -1373.207397460938 4215.79541015625 -1375.266479492188 C 4215.79541015625 -1377.325561523438 4214.11083984375 -1379.010375976562 4212.0517578125 -1379.010375976562 C 4214.11083984375 -1379.010375976562 4215.79541015625 -1380.695190429688 4215.79541015625 -1382.75439453125 C 4215.79541015625 -1384.813598632812 4214.11083984375 -1386.498413085938 4212.0517578125 -1386.498413085938 L 4196.70166015625 -1386.498413085938 C 4198.9853515625 -1393.35009765625 4198.9482421875 -1395.533935546875 4198.9482421875 -1399.727172851562 C 4198.9482421875 -1402.84228515625 4196.39306640625 -1405.343017578125 4193.33154296875 -1405.343017578125 L 4192.20849609375 -1405.343017578125 C 4191.49755859375 -1405.343017578125 4190.5986328125 -1404.78125 4190.41162109375 -1403.920288085938 C 4188.55908203125 -1396.709350585938 4185.6640625 -1388.434692382812 4178.35595703125 -1386.758666992188 L 4178.35595703125 -1359.669555664062 L 4184.8330078125 -1357.520263671875 C 4186.74169921875 -1356.8837890625 4188.7265625 -1356.546630859375 4190.7490234375 -1356.546630859375 L 4208.30810546875 -1356.546630859375 M 4208.30859375 -1351.546630859375 L 4208.30810546875 -1351.546630859375 L 4208.30810546875 -1351.546630859375 L 4208.3076171875 -1351.546630859375 L 4190.7490234375 -1351.546630859375 C 4188.2236328125 -1351.546630859375 4185.7021484375 -1351.960205078125 4183.2548828125 -1352.77587890625 L 4176.78125 -1354.923950195312 L 4173.35595703125 -1356.060668945312 L 4173.35595703125 -1359.669555664062 L 4173.35595703125 -1386.758666992188 L 4173.35595703125 -1390.741821289062 L 4177.23828125 -1391.632080078125 C 4178.4453125 -1391.908935546875 4180.26416015625 -1392.641845703125 4182.119140625 -1395.797485351562 C 4183.7509765625 -1398.574096679688 4184.8115234375 -1402.222900390625 4185.55419921875 -1405.106811523438 C 4185.919921875 -1406.643676757812 4186.837890625 -1408.015502929688 4188.1494140625 -1408.981079101562 C 4189.34228515625 -1409.859375 4190.7841796875 -1410.343017578125 4192.20849609375 -1410.343017578125 L 4193.33154296875 -1410.343017578125 C 4199.185546875 -1410.343017578125 4203.9482421875 -1405.580810546875 4203.9482421875 -1399.727172851562 L 4203.9482421875 -1399.529907226562 C 4203.94873046875 -1397.39892578125 4203.94873046875 -1395.55859375 4203.61474609375 -1393.289306640625 C 4203.52978515625 -1392.712768554688 4203.42431640625 -1392.119018554688 4203.2958984375 -1391.498413085938 L 4212.0517578125 -1391.498413085938 C 4216.873046875 -1391.498413085938 4220.79541015625 -1387.575805664062 4220.79541015625 -1382.75439453125 C 4220.79541015625 -1381.415405273438 4220.4931640625 -1380.14599609375 4219.95263671875 -1379.010375976562 C 4220.4931640625 -1377.874877929688 4220.79541015625 -1376.60546875 4220.79541015625 -1375.266479492188 C 4220.79541015625 -1373.927490234375 4220.4931640625 -1372.657958984375 4219.95263671875 -1371.5224609375 C 4220.4931640625 -1370.386962890625 4220.79541015625 -1369.117431640625 4220.79541015625 -1367.778442382812 C 4220.79541015625 -1364.812377929688 4219.31103515625 -1362.1865234375 4217.04638671875 -1360.604858398438 C 4217.0498046875 -1360.500610351562 4217.0517578125 -1360.395629882812 4217.0517578125 -1360.29052734375 C 4217.0517578125 -1355.469116210938 4213.12939453125 -1351.546630859375 4208.30810546875 -1351.546630859375 L 4208.30859375 -1351.546630859375 Z" stroke="none" fill="#4591ff"/></g></g></g><g transform="translate(3916.912 -1539.224)"><g transform="translate(0 0)"><g transform="translate(-3916.912 1194.445)" fill="#c3fdf2" stroke-miterlimit="10"><path d="M 3926.2724609375 -1154.505249023438 L 3918.784423828125 -1154.505249023438 C 3916.37353515625 -1154.505249023438 3914.412353515625 -1156.466552734375 3914.412353515625 -1158.877197265625 L 3914.412353515625 -1192.572875976562 C 3914.412353515625 -1194.983642578125 3916.37353515625 -1196.944946289062 3918.784423828125 -1196.944946289062 L 3926.2724609375 -1196.944946289062 C 3930.74755859375 -1196.944946289062 3934.38818359375 -1193.304077148438 3934.38818359375 -1188.828857421875 L 3934.38818359375 -1162.621215820312 C 3934.38818359375 -1158.146118164062 3930.74755859375 -1154.505249023438 3926.2724609375 -1154.505249023438 Z M 3926.2724609375 -1166.993041992188 C 3925.926025390625 -1166.993041992188 3925.644287109375 -1166.711303710938 3925.644287109375 -1166.365112304688 C 3925.644287109375 -1166.018798828125 3925.926025390625 -1165.737060546875 3926.2724609375 -1165.737060546875 C 3926.61865234375 -1165.737060546875 3926.900390625 -1166.018798828125 3926.900390625 -1166.365112304688 C 3926.900390625 -1166.711303710938 3926.61865234375 -1166.993041992188 3926.2724609375 -1166.993041992188 Z" stroke="none"/><path d="M 3918.784423828125 -1194.444946289062 C 3917.749755859375 -1194.444946289062 3916.912353515625 -1193.607543945312 3916.912353515625 -1192.572875976562 L 3916.912353515625 -1158.877197265625 C 3916.912353515625 -1157.842529296875 3917.749755859375 -1157.005249023438 3918.784423828125 -1157.005249023438 L 3926.2724609375 -1157.005249023438 C 3929.368896484375 -1157.005249023438 3931.88818359375 -1159.524291992188 3931.88818359375 -1162.621215820312 L 3931.88818359375 -1188.828857421875 C 3931.88818359375 -1191.92578125 3929.368896484375 -1194.444946289062 3926.2724609375 -1194.444946289062 L 3918.784423828125 -1194.444946289062 M 3926.2724609375 -1164.493041992188 C 3925.23828125 -1164.493041992188 3924.400390625 -1165.331176757812 3924.400390625 -1166.365112304688 C 3924.400390625 -1167.399169921875 3925.23828125 -1168.237060546875 3926.2724609375 -1168.237060546875 C 3927.30615234375 -1168.237060546875 3928.144287109375 -1167.399169921875 3928.144287109375 -1166.365112304688 C 3928.144287109375 -1165.331176757812 3927.30615234375 -1164.493041992188 3926.2724609375 -1164.493041992188 M 3918.784423828125 -1199.444946289062 L 3926.2724609375 -1199.444946289062 C 3932.1259765625 -1199.444946289062 3936.88818359375 -1194.6826171875 3936.88818359375 -1188.828857421875 L 3936.88818359375 -1162.621215820312 C 3936.88818359375 -1156.767578125 3932.1259765625 -1152.005249023438 3926.2724609375 -1152.005249023438 L 3918.784423828125 -1152.005249023438 C 3914.9951171875 -1152.005249023438 3911.912353515625 -1155.088012695312 3911.912353515625 -1158.877197265625 L 3911.912353515625 -1192.572875976562 C 3911.912353515625 -1196.362182617188 3914.9951171875 -1199.444946289062 3918.784423828125 -1199.444946289062 Z" stroke="none" fill="#4591ff"/></g></g></g><g transform="translate(3933.514 -1568.893)"><g transform="translate(0 0)"><g transform="translate(-4194.978 1493.298)" fill="#c3fdf2" stroke-miterlimit="10"><path d="M 4199.49658203125 -1484.406982421875 C 4198.3291015625 -1484.406982421875 4197.23095703125 -1484.86181640625 4196.4052734375 -1485.687744140625 L 4193.75830078125 -1488.33447265625 C 4192.05419921875 -1490.039428710938 4192.05419921875 -1492.812622070312 4193.7578125 -1494.516967773438 C 4194.58349609375 -1495.343139648438 4195.681640625 -1495.798095703125 4196.849609375 -1495.798095703125 C 4198.01708984375 -1495.798095703125 4199.11474609375 -1495.343383789062 4199.94091796875 -1494.517700195312 L 4202.58837890625 -1491.8701171875 C 4203.4140625 -1491.044799804688 4203.869140625 -1489.94677734375 4203.869140625 -1488.778930664062 C 4203.869140625 -1487.611083984375 4203.4140625 -1486.513061523438 4202.587890625 -1485.687255859375 C 4201.76171875 -1484.861572265625 4200.6640625 -1484.406982421875 4199.49658203125 -1484.406982421875 Z" stroke="none"/><path d="M 4199.49658203125 -1486.906982421875 C 4199.9755859375 -1486.906982421875 4200.45458984375 -1487.08984375 4200.8203125 -1487.455322265625 C 4201.5517578125 -1488.1865234375 4201.5517578125 -1489.371337890625 4200.8203125 -1490.102416992188 L 4198.17333984375 -1492.749633789062 C 4197.8076171875 -1493.115234375 4197.32861328125 -1493.297973632812 4196.849609375 -1493.297973632812 C 4196.3701171875 -1493.297973632812 4195.89111328125 -1493.115234375 4195.52587890625 -1492.749633789062 C 4194.794921875 -1492.018310546875 4194.794921875 -1490.833740234375 4195.52587890625 -1490.102416992188 L 4198.17333984375 -1487.455322265625 C 4198.5390625 -1487.08984375 4199.017578125 -1486.906982421875 4199.49658203125 -1486.906982421875 M 4199.49658203125 -1481.906982421875 C 4197.6611328125 -1481.906982421875 4195.935546875 -1482.621948242188 4194.6376953125 -1483.920166015625 L 4191.99072265625 -1486.566650390625 C 4189.31201171875 -1489.24658203125 4189.31201171875 -1493.60546875 4191.9892578125 -1496.284301757812 C 4193.28759765625 -1497.5830078125 4195.013671875 -1498.297973632812 4196.849609375 -1498.297973632812 C 4198.6845703125 -1498.297973632812 4200.41015625 -1497.583374023438 4201.70849609375 -1496.285766601562 L 4204.35595703125 -1493.637817382812 C 4205.65380859375 -1492.3408203125 4206.369140625 -1490.614868164062 4206.369140625 -1488.778930664062 C 4206.369140625 -1486.943115234375 4205.65380859375 -1485.21728515625 4204.35546875 -1483.919189453125 C 4203.05712890625 -1482.62158203125 4201.33154296875 -1481.906982421875 4199.49658203125 -1481.906982421875 Z" stroke="none" fill="#4591ff"/></g></g></g><g transform="translate(3962.965 -1568.893)"><g transform="translate(0 0)"><g transform="translate(-4490.785 1493.298)" fill="#c3fdf2" stroke-miterlimit="10"><path d="M 4492.65673828125 -1484.406982421875 C 4491.4892578125 -1484.406982421875 4490.39111328125 -1484.86181640625 4489.5654296875 -1485.687744140625 C 4487.861328125 -1487.392333984375 4487.861328125 -1490.165649414062 4489.5654296875 -1491.869995117188 L 4492.21337890625 -1494.517456054688 C 4493.03857421875 -1495.343139648438 4494.13671875 -1495.798095703125 4495.3046875 -1495.798095703125 C 4496.47216796875 -1495.798095703125 4497.5703125 -1495.343139648438 4498.39599609375 -1494.51708984375 C 4499.2216796875 -1493.691650390625 4499.6767578125 -1492.59375 4499.6767578125 -1491.426025390625 C 4499.6767578125 -1490.25830078125 4499.2216796875 -1489.160400390625 4498.3955078125 -1488.33447265625 L 4495.74853515625 -1485.687622070312 C 4494.92138671875 -1484.861450195312 4493.82373046875 -1484.406982421875 4492.65673828125 -1484.406982421875 Z" stroke="none"/><path d="M 4495.3046875 -1493.297973632812 C 4494.82568359375 -1493.297973632812 4494.3466796875 -1493.115234375 4493.98095703125 -1492.749633789062 L 4491.33349609375 -1490.102416992188 C 4490.6025390625 -1489.371337890625 4490.6025390625 -1488.1865234375 4491.33349609375 -1487.455322265625 C 4491.69873046875 -1487.08984375 4492.177734375 -1486.906982421875 4492.65673828125 -1486.906982421875 C 4493.1357421875 -1486.906982421875 4493.615234375 -1487.08984375 4493.98095703125 -1487.455322265625 L 4496.6279296875 -1490.102416992188 C 4497.359375 -1490.833740234375 4497.359375 -1492.018310546875 4496.6279296875 -1492.749633789062 C 4496.26220703125 -1493.115234375 4495.783203125 -1493.297973632812 4495.3046875 -1493.297973632812 M 4495.30419921875 -1498.297973632812 C 4497.14013671875 -1498.297973632812 4498.8662109375 -1497.5830078125 4500.1640625 -1496.284545898438 C 4501.46142578125 -1494.9873046875 4502.17626953125 -1493.261596679688 4502.17626953125 -1491.426025390625 C 4502.17626953125 -1489.590454101562 4501.46142578125 -1487.86474609375 4500.1630859375 -1486.566650390625 L 4497.5166015625 -1483.919921875 C 4496.21630859375 -1482.62109375 4494.4912109375 -1481.906982421875 4492.65673828125 -1481.906982421875 C 4490.8212890625 -1481.906982421875 4489.095703125 -1482.621948242188 4487.7978515625 -1483.920043945312 C 4485.119140625 -1486.599609375 4485.119140625 -1490.958740234375 4487.7978515625 -1493.637573242188 L 4490.44580078125 -1496.285278320312 C 4491.74267578125 -1497.5830078125 4493.46875 -1498.297973632812 4495.30419921875 -1498.297973632812 Z" stroke="none" fill="#4591ff"/></g></g></g><g transform="translate(3948.736 -1573.952)"><g transform="translate(0 0)"><g transform="translate(-4361.366 1563.952)" fill="#c3fdf2" stroke-miterlimit="10"><path d="M 4363.23828125 -1553.839233398438 C 4362.0634765625 -1553.839233398438 4360.9638671875 -1554.2919921875 4360.1416015625 -1555.1142578125 C 4359.31884765625 -1555.9365234375 4358.8662109375 -1557.036376953125 4358.8662109375 -1558.211181640625 L 4358.8662109375 -1562.079956054688 C 4358.8662109375 -1563.2548828125 4359.31884765625 -1564.354736328125 4360.14111328125 -1565.177001953125 C 4360.96337890625 -1565.999267578125 4362.0634765625 -1566.4521484375 4363.23828125 -1566.4521484375 C 4364.4130859375 -1566.4521484375 4365.51318359375 -1565.999145507812 4366.33544921875 -1565.1767578125 C 4367.1572265625 -1564.3544921875 4367.60986328125 -1563.254760742188 4367.60986328125 -1562.079956054688 L 4367.60986328125 -1558.211181640625 C 4367.60986328125 -1557.036499023438 4367.1572265625 -1555.936767578125 4366.33544921875 -1555.114501953125 C 4365.51318359375 -1554.292114257812 4364.4130859375 -1553.839233398438 4363.23828125 -1553.839233398438 Z" stroke="none"/><path d="M 4363.23828125 -1563.9521484375 C 4362.18994140625 -1563.9521484375 4361.3662109375 -1563.128540039062 4361.3662109375 -1562.079956054688 L 4361.3662109375 -1558.211181640625 C 4361.3662109375 -1557.162841796875 4362.18994140625 -1556.339233398438 4363.23828125 -1556.339233398438 C 4364.28662109375 -1556.339233398438 4365.10986328125 -1557.162841796875 4365.10986328125 -1558.211181640625 L 4365.10986328125 -1562.079956054688 C 4365.10986328125 -1563.128540039062 4364.28662109375 -1563.9521484375 4363.23828125 -1563.9521484375 M 4363.23828125 -1568.9521484375 C 4365.0810546875 -1568.9521484375 4366.80908203125 -1568.239013671875 4368.103515625 -1566.944213867188 C 4369.3974609375 -1565.649780273438 4370.10986328125 -1563.92236328125 4370.10986328125 -1562.079956054688 L 4370.10986328125 -1558.211181640625 C 4370.10986328125 -1556.368896484375 4369.3974609375 -1554.641357421875 4368.10302734375 -1553.347045898438 C 4366.80859375 -1552.05224609375 4365.0810546875 -1551.339233398438 4363.23828125 -1551.339233398438 C 4361.39599609375 -1551.339233398438 4359.66796875 -1552.052001953125 4358.37353515625 -1553.346435546875 C 4357.0791015625 -1554.640869140625 4356.3662109375 -1556.368530273438 4356.3662109375 -1558.211181640625 L 4356.3662109375 -1562.079956054688 C 4356.3662109375 -1563.922607421875 4357.0791015625 -1565.650268554688 4358.37353515625 -1566.94482421875 C 4359.66796875 -1568.2392578125 4361.3955078125 -1568.9521484375 4363.23828125 -1568.9521484375 Z" stroke="none" fill="#4591ff"/></g></g></g></g></svg>