<svg xmlns="http://www.w3.org/2000/svg" width="87.934" height="70.882" viewBox="0 0 87.934 70.882"><g transform="translate(-3832.5 6655.501)"><g transform="translate(3835 -6653.001)"><path d="M-1055.98,569.6l1.183.347v29.192l-.76.465-.338-.493Z" transform="translate(1081.872 -535.072)" fill="#579bff" stroke="rgba(0,0,0,0)" stroke-width="1"/><path d="M-794.855,569.6l-1.183.347v29.192l.76.465.338-.493Z" transform="translate(851.897 -535.072)" fill="#579bff" stroke="rgba(0,0,0,0)" stroke-width="1"/><path d="M-782.339,270.109l-.507.73v26.455h.864l.007-26.981Z" transform="translate(840.225 -270.108)" fill="#579bff" stroke="rgba(0,0,0,0)" stroke-width="1"/><g transform="translate(41.137 6.496)"><rect width="18.222" height="0.115" transform="matrix(0.937, -0.35, 0.35, 0.937, 0, 6.384)" fill="#8ef4e0" stroke="#8ef4e0" stroke-width="1.5"/></g><g transform="translate(41.133 14.982)"><rect width="0.115" height="19.145" transform="translate(0 0.103) rotate(-63.034)" fill="#00ffce" stroke="#8ef4e0" stroke-width="1.5"/></g><path d="M-1066.1,270.109l.507.73v26.455h-.865l-.007-26.981Z" transform="translate(1091.151 -270.108)" fill="#579bff" stroke="rgba(0,0,0,0)" stroke-width="1"/><g transform="translate(24.689 6.496)"><rect width="0.115" height="18.222" transform="matrix(0.35, -0.937, 0.937, 0.35, 0, 0.108)" fill="#00ffce" stroke="#8ef4e0" stroke-width="1.5"/></g><g transform="translate(24.685 14.982)"><rect width="19.145" height="0.115" transform="translate(0 8.682) rotate(-26.966)" fill="#00ffce" stroke="#8ef4e0" stroke-width="1.5"/></g><g transform="translate(1280.576 -270.108)" fill="#174dfd"><path d="M -1215.355712890625 337.2398986816406 L -1216.605712890625 337.2398986816406 L -1220.577026367188 337.2398986816406 L -1221.257202148438 337.2398986816406 L -1221.626586914062 336.6688232421875 L -1222.171020507812 335.8271179199219 L -1223.913696289062 335.88720703125 L -1225.206787109375 335.9317932128906 L -1225.206787109375 334.637939453125 L -1225.206787109375 306.2315979003906 L -1239.10888671875 306.2315979003906 L -1253.011474609375 306.2315979003906 L -1253.011474609375 334.637939453125 L -1253.011474609375 335.9317932128906 L -1254.304565429688 335.88720703125 L -1256.047119140625 335.8271179199219 L -1256.591552734375 336.6688232421875 L -1256.9609375 337.2398986816406 L -1257.64111328125 337.2398986816406 L -1261.612060546875 337.2398986816406 L -1262.862060546875 337.2398986816406 L -1262.862060546875 335.9898986816406 L -1262.862060546875 335.8034362792969 L -1280.576171875 335.8034362792969 L -1281.826171875 335.8034362792969 L -1281.826171875 334.5534362792969 L -1281.826171875 327.456298828125 L -1281.826171875 326.9591674804688 L -1281.484741210938 326.5978088378906 C -1277.120483398438 321.9789123535156 -1273.313842773438 317.2623596191406 -1270.170776367188 312.5791015625 C -1267.65869140625 308.8362121582031 -1265.5625 305.106201171875 -1263.9404296875 301.49267578125 C -1261.366088867188 295.7583312988281 -1260.815551757812 292.1302795410156 -1260.75 291.6393737792969 L -1260.75 270.1080017089844 L -1260.75 268.8580017089844 L -1259.5 268.8580017089844 L -1255.52880859375 268.8580017089844 L -1254.28271484375 268.8580017089844 L -1254.27880859375 270.1041259765625 L -1254.1982421875 296.0428466796875 L -1239.10888671875 296.0428466796875 L -1224.019775390625 296.0428466796875 L -1223.939208984375 270.1041259765625 L -1223.935302734375 268.8580017089844 L -1222.689208984375 268.8580017089844 L -1218.71826171875 268.8580017089844 L -1217.46826171875 268.8580017089844 L -1217.46826171875 270.1080017089844 L -1217.46826171875 291.6398010253906 C -1217.403930664062 292.1216430664062 -1216.855102539062 295.7515563964844 -1214.27783203125 301.49267578125 C -1212.655639648438 305.106201171875 -1210.559448242188 308.8362121582031 -1208.047485351562 312.5791015625 C -1204.904296875 317.2623596191406 -1201.097778320312 321.9789123535156 -1196.733520507812 326.5978088378906 L -1196.39208984375 326.9591674804688 L -1196.39208984375 327.456298828125 L -1196.39208984375 334.5534362792969 L -1196.39208984375 335.8034362792969 L -1197.64208984375 335.8034362792969 L -1215.355712890625 335.8034362792969 L -1215.355712890625 335.9898986816406 L -1215.355712890625 337.2398986816406 Z" stroke="none"/><path d="M -1259.5 270.1080017089844 L -1259.5 291.7164611816406 C -1259.5 291.7164611816406 -1261.0966796875 306.8404235839844 -1280.576171875 327.456298828125 L -1280.576171875 334.5534362792969 L -1261.612060546875 334.5534362792969 L -1261.612060546875 335.9898986816406 L -1257.64111328125 335.9898986816406 L -1256.7119140625 334.5534362792969 L -1254.261474609375 334.637939453125 L -1254.261474609375 304.9815979003906 L -1239.10888671875 304.9815979003906 L -1223.956787109375 304.9815979003906 L -1223.956787109375 334.637939453125 L -1221.506225585938 334.5534362792969 L -1220.577026367188 335.9898986816406 L -1216.605712890625 335.9898986816406 L -1216.605712890625 334.5534362792969 L -1197.64208984375 334.5534362792969 L -1197.64208984375 327.456298828125 C -1217.121459960938 306.8404235839844 -1218.71826171875 291.7164611816406 -1218.71826171875 291.7164611816406 L -1218.71826171875 270.1080017089844 L -1222.689208984375 270.1080017089844 L -1222.773681640625 297.2928466796875 L -1239.10888671875 297.2928466796875 L -1255.4443359375 297.2928466796875 L -1255.52880859375 270.1080017089844 L -1259.5 270.1080017089844 M -1262 267.6080017089844 L -1259.5 267.6080017089844 L -1255.52880859375 267.6080017089844 L -1253.03662109375 267.6080017089844 L -1253.02880859375 270.1002502441406 L -1252.9521484375 294.7928466796875 L -1239.10888671875 294.7928466796875 L -1225.265869140625 294.7928466796875 L -1225.189208984375 270.1002502441406 L -1225.181396484375 267.6080017089844 L -1222.689208984375 267.6080017089844 L -1218.71826171875 267.6080017089844 L -1216.21826171875 267.6080017089844 L -1216.21826171875 270.1080017089844 L -1216.21826171875 291.5527648925781 C -1216.123046875 292.2027587890625 -1215.526733398438 295.69677734375 -1213.07177734375 301.1266174316406 C -1211.472900390625 304.6628723144531 -1209.410766601562 308.3152160644531 -1206.942504882812 311.9822082519531 C -1203.851196289062 316.5750122070312 -1200.110595703125 321.2035827636719 -1195.824951171875 325.7393188476562 L -1195.14208984375 326.4620361328125 L -1195.14208984375 327.456298828125 L -1195.14208984375 334.5534362792969 L -1195.14208984375 337.0534362792969 L -1197.64208984375 337.0534362792969 L -1214.105712890625 337.0534362792969 L -1214.105712890625 338.4898986816406 L -1216.605712890625 338.4898986816406 L -1220.577026367188 338.4898986816406 L -1221.937377929688 338.4898986816406 L -1222.676147460938 337.3477478027344 L -1222.8359375 337.1007690429688 L -1223.87060546875 337.1364440917969 L -1226.456787109375 337.2256164550781 L -1226.456787109375 334.637939453125 L -1226.456787109375 307.4815979003906 L -1239.10888671875 307.4815979003906 L -1251.761474609375 307.4815979003906 L -1251.761474609375 334.637939453125 L -1251.761474609375 337.2256469726562 L -1254.34765625 337.1364440917969 L -1255.382202148438 337.1007690429688 L -1255.5419921875 337.3477478027344 L -1256.280883789062 338.4898986816406 L -1257.64111328125 338.4898986816406 L -1261.612060546875 338.4898986816406 L -1264.112060546875 338.4898986816406 L -1264.112060546875 337.0534362792969 L -1280.576171875 337.0534362792969 L -1283.076171875 337.0534362792969 L -1283.076171875 334.5534362792969 L -1283.076171875 327.456298828125 L -1283.076171875 326.4620361328125 L -1282.393310546875 325.7393188476562 C -1278.045654296875 321.1380310058594 -1274.260375976562 316.4428405761719 -1271.142822265625 311.7842102050781 C -1268.665649414062 308.0826110839844 -1266.6044921875 304.3996276855469 -1265.016723632812 300.8375854492188 C -1262.661987304688 295.5551452636719 -1262.089721679688 292.1726379394531 -1262 291.5558166503906 L -1262 270.1080017089844 L -1262 267.6080017089844 Z" stroke="none" fill="#579bff"/></g><path d="M-1114.9,590.934h3.8s.169,18.588-.929,23.742h-4.056S-1114.473,599.637-1114.9,590.934Z" transform="translate(1135.042 -553.948)" fill="#579bff" stroke="rgba(0,0,0,0)" stroke-width="1"/><rect width="4.056" height="5.154" transform="translate(18.964 60.728)" fill="#1546a1" stroke="rgba(0,0,0,0)" stroke-width="1"/><path d="M-765.19,590.934h-3.8s-.169,18.588.929,23.742h4.055S-765.612,599.637-765.19,590.934Z" transform="translate(827.977 -553.948)" fill="#579bff" stroke="rgba(0,0,0,0)" stroke-width="1"/><rect width="4.056" height="5.154" transform="translate(63.97 65.882) rotate(-180)" fill="#1546a1" stroke="rgba(0,0,0,0)" stroke-width="1"/><path d="M-768.92,590.934v27.46l1.014,1.436-.084-5.154S-768.666,599.383-768.92,590.934Z" transform="translate(827.905 -553.948)" fill="#337dff" stroke="rgba(0,0,0,0)" stroke-width="1"/><path d="M-943.6,358.279v5.553h3.567a5.044,5.044,0,0,0,1.8-2.248c.638-1.54-.225-1.765.864-3.643l-.751-.925-.563.549-.526.038-1.774,1.615-.78-.976Z" transform="translate(982.449 -346.997)" fill="#8ef4e0" stroke="#8ef4e0" stroke-width="2"/></g></g></svg>