<svg xmlns="http://www.w3.org/2000/svg" width="77.847" height="91.449" viewBox="0 0 77.847 91.449"><g transform="translate(180.486 -1294.587)"><g transform="translate(-180.486 1294.587)"><path d="M135.635,1602.257l0,.024Z" transform="translate(-99.509 -1567.1)" fill="#10274f"/><path d="M135.69,1601.195l-.022.121Z" transform="translate(-99.542 -1566.159)" fill="#10274f"/><path d="M135.381,1602.467l-.032.179Z" transform="translate(-99.259 -1567.286)" fill="#10274f"/><path d="M135.891,1599.686l-.031.172Z" transform="translate(-99.712 -1564.823)" fill="#10274f"/><path d="M135.179,1604.03l-.022.122Z" transform="translate(-99.089 -1568.67)" fill="#10274f"/><path d="M136.144,1599.436l0,.023Z" transform="translate(-99.96 -1564.601)" fill="#10274f"/><path d="M136.178,1599.4v0Z" transform="translate(-99.992 -1564.573)" fill="#10274f"/><path d="M136.132,1599.637v0Z" transform="translate(-99.952 -1564.779)" fill="#10274f"/><path d="M134.512,1606.425l-.052.291Z" transform="translate(-98.472 -1570.792)" fill="#10274f"/><path d="M134.307,1609.676l0,.017Z" transform="translate(-98.333 -1573.671)" fill="#10274f"/><path d="M135.041,1605.1l-.015.083Z" transform="translate(-98.973 -1569.615)" fill="#10274f"/><path d="M134.335,1609.545l0,.015Z" transform="translate(-98.358 -1573.555)" fill="#10274f"/><path d="M134.287,1609.829Z" transform="translate(-98.316 -1573.807)" fill="#10274f"/><path d="M134.929,1605.823l-.012.069Z" transform="translate(-98.876 -1570.258)" fill="#10274f"/><path d="M134.367,1608.966l-.012.066Z" transform="translate(-98.379 -1573.042)" fill="#10274f"/><path d="M185.135,1605.1l.015.083Z" transform="translate(-143.356 -1569.615)" fill="#10274f"/><path d="M184.432,1601.195l.022.121Z" transform="translate(-142.733 -1566.159)" fill="#10274f"/><path d="M184.943,1604.03l.022.122Z" transform="translate(-143.186 -1568.67)" fill="#10274f"/><path d="M184.72,1602.793l.025.141Z" transform="translate(-142.988 -1567.575)" fill="#10274f"/><path d="M184.623,1602.257l.011.061Z" transform="translate(-142.903 -1567.1)" fill="#10274f"/><path d="M184.109,1599.4v0Z" transform="translate(-142.447 -1564.573)" fill="#10274f"/><path d="M184.151,1599.637v0Z" transform="translate(-142.485 -1564.779)" fill="#10274f"/><path d="M184.115,1599.436l0,.023Z" transform="translate(-142.453 -1564.601)" fill="#10274f"/><path d="M184.16,1599.686l.031.172Z" transform="translate(-142.492 -1564.823)" fill="#10274f"/><path d="M185.987,1609.829Z" transform="translate(-144.111 -1573.807)" fill="#10274f"/><path d="M185.266,1605.823l.012.069Z" transform="translate(-143.472 -1570.258)" fill="#10274f"/><path d="M-104.67,1367.973l-1.837-14.383h2.838v-.568l-3-.717-.388-2.569-.747-5.885a2.361,2.361,0,0,0-.926,1.867l-.224.06a1.321,1.321,0,0,1-.747,1.016v.344l-1.449.05v1.21h-.787v-1.235l-3.525-.02v1.339h-.9v-1.28h-3.7v1.28h-.757v-1.3l-1.314.119v-.418a1.116,1.116,0,0,1-.817-1.036l-.4.08a1.761,1.761,0,0,0-1.215-1.832l-.06,2.549h-.239l-2.868-27.96,3.465.478v-.687l-3.674-.986-.657-7.707a3.285,3.285,0,0,0-1.065,1.573,3.478,3.478,0,0,1-.836.976v.3h-1.553v1h-.8v-1h-3.405v.956h-.717v-.976h-3.684v-1.016h-.757v-16.509s.5-.2-.149-.5c-.647.3-.149.5-.149.5v16.509h-.757v1.016h-3.684v.976h-.717v-.956h-3.405v1h-.8v-1h-1.553v-.3a3.478,3.478,0,0,1-.836-.976,3.285,3.285,0,0,0-1.065-1.573l-.657,7.707-3.674.986v.687l3.465-.478-2.868,27.96h-.239l-.06-2.549a1.761,1.761,0,0,0-1.215,1.832l-.4-.08a1.116,1.116,0,0,1-.816,1.036v.418l-1.314-.119v1.3h-.757v-1.28h-3.7v1.28h-.9v-1.339l-3.525.02v1.235h-.787v-1.21l-1.449-.05v-.344a1.321,1.321,0,0,1-.747-1.016l-.224-.06a2.361,2.361,0,0,0-.926-1.867l-.747,5.885-.388,2.569-3,.717v.568h2.838l-1.837,14.383-2.031,18.063,23.778-.239.6-.956,6.174.079-.02-.2-.568-4.884-.538-1.583.448-2.121.239-1.4-.06-1.643.09-4.6.269-2.211v-8.125l.249-7.967.3-2.966v-4.6l-.463-2.659-.627-2.6.9-4.152,2.3-3.107,3.117-.677a5.182,5.182,0,0,1,2.738-3.7,5.182,5.182,0,0,1,2.738,3.7l3.117.677,2.3,3.107.9,4.152-.627,2.6-.463,2.659v4.6l.3,2.966.249,7.967v8.125l.269,2.211.09,4.6-.06,1.643.239,1.4.448,2.121-.538,1.583-.568,4.884-.02.2,6.174-.079.6.956,23.778.239Z" transform="translate(180.486 -1294.587)" fill="#174dfd"/><path d="M185.917,1609.438l0,.027Z" transform="translate(-144.049 -1573.46)" fill="#10274f"/><path d="M185.96,1609.676l0,.017Z" transform="translate(-144.087 -1573.671)" fill="#10274f"/><path d="M185.832,1608.966l.009.05Z" transform="translate(-143.973 -1573.042)" fill="#10274f"/><path d="M185.914,1609.419v0Z" transform="translate(-144.046 -1573.444)" fill="#10274f"/><path d="M185.374,1606.425l.052.291Z" transform="translate(-143.568 -1570.792)" fill="#10274f"/><path d="M185.91,1609.4v0Z" transform="translate(-144.042 -1573.426)" fill="#10274f"/></g><path d="M-68.079,1831.372h2.748l-.207,5.141-.431,10.711h.846v1.036h-4.914v-.9h1.18l.521-10.735Z" transform="translate(-97.83 -475.448)" fill="#8ef4e0"/><path d="M-124.893,1831.372h2.748l-.207,5.141-.431,10.711h.846v1.036h-4.914v-.9h1.18l.521-10.735Z" transform="translate(-47.508 -475.448)" fill="#8ef4e0"/><path d="M-151.062,2001.906v1.733h-1.285v1.105h1.285v1.374h-1.285v1.374h1.285v1.165h-1.285v1.314h-3.764l-.791.211-23.29-.268-.294,2.616,23.778-.239.6-.956,6.174.08v-9.509Z" transform="translate(0 -626.495)" fill="#579bff"/><path d="M-168.629,1735.466h-2.838v-.568l3-.717.372-2.458.017-.111,0-.036.742-5.849a2.361,2.361,0,0,1,.926,1.867l.224.06a1.321,1.321,0,0,0,.747,1.016v.344l1.449.05v1.21h.787v-1.235l3.525-.02v1.34h.9v-1.28h3.7v1.28h.757v-1.3l1.314.119v-.418a1.116,1.116,0,0,0,.816-1.036l.4.08a1.761,1.761,0,0,1,1.215-1.832l.06,2.549h.239v1.193l.508.834v2.393l-.792-1.3-17.483-.067Z" transform="translate(-7.989 -381.875)" fill="#579bff"/><path d="M101.209,1578.871l.518-5.656-.319-5.218-2.942-4.142-5.392-3.664-5.392,3.664L84.74,1568l-.319,5.218.518,5.656-.04,2.191-.159,1.912.159,5.576,1.792-.176-.109-8.189a1.158,1.158,0,0,1,.97-.876l.015-.657-.015-3.007.13-.408s.553-1.15.993-1.135c.769.351.844,1.464.844,1.464h.114v.538h.02v.583h.612v-1.12h.164v-3.211c1.4-3.316,2.644-3.092,2.644-3.092s1.24-.224,2.644,3.092v3.211h.164v1.12h.612v-.583h.02v-.538h.115s.075-1.113.844-1.464c.441-.015.993,1.135.993,1.135l.13.408-.015,3.007.015.657a1.157,1.157,0,0,1,.97.876l-.109,8.189,1.792.176.159-5.576-.159-1.912Z" transform="translate(-234.637 -235.254)" fill="#8ef4e0"/><path d="M86.071,1590.3v-1.225h1.135v-1.3H85.952v-1.344h1.255v-1.12H85.922v-1.329H87v-1.135h-1.15v-1.344H87v-1.21h-1.21v-1.24h1.12v-1.24H85.683v-1.255h1.225v-1.2h-1.18v-1.15h1.105V1572.8h-1.18v-1.075h1.18v-1.284H85.608v-1.12h1.225v-1.255H85.608v-1.24h1.045v-1.24H85.5v-1.076h1.15v-1.21h-1.21v-1.075h1.21v-1.24h-1.21v-1.061h1.105v-1.24H85.235v-1.15h1.24v-1.045H85.22v-1.24h1.145v-3c-.08-9.679-9.808-14.02-9.808-14.02s-9.728,4.341-9.808,14.02v3h1.145v1.24H66.639v1.045h1.24v1.15H66.565v1.24H67.67v1.061H66.46v1.24h1.21v1.075H66.46v1.21h1.15v1.076H66.46v1.24h1.045v1.24H66.281v1.255h1.225v1.12H66.281v1.284h1.18v1.075h-1.18v1.419h1.105v1.15h-1.18v1.2h1.225v1.255H66.206v1.24h1.12v1.24h-1.21v1.21h1.15v1.344h-1.15v1.135h1.075v1.329H65.907v1.12h1.255v1.344H65.907v1.3h1.135v1.225h-1.27v1.225h2.888v-6.019h.9l.02-.518s-.12-.478-.259-1.135l.378.02s.478-1.115-.578-.936c0,0,.358-7.926,7.438-10,7.08,2.071,7.438,10,7.438,10-1.055-.179-.578.936-.578.936l.378-.02c-.139.657-.259,1.135-.259,1.135l.02.518h.9v6.019h2.888V1590.3Zm-9.514-21.264L68.9,1568.9l.378-14.856s.12-1.046,1.075-.817l.159-4.829s.667-1.394,1.185-1.265.866.926.986,1.314v1.643h.956V1548.9h.179v-3.674a5.16,5.16,0,0,1,2.738-3.7,5.16,5.16,0,0,1,2.738,3.7v3.674h.179v1.195h.956v-1.643c.119-.388.468-1.185.986-1.314S82.6,1548.4,82.6,1548.4l.159,4.829c.956-.229,1.075.817,1.075.817l.378,14.856Z" transform="translate(-218.12 -215.804)" fill="#579bff"/><path d="M350.281,1831.372h-2.748l.207,5.141.431,10.711h-.846v1.036h4.914v-.9h-1.18l-.521-10.735Z" transform="translate(-467.498 -475.448)" fill="#8ef4e0"/><path d="M407.095,1831.372h-2.748l.207,5.141.431,10.711h-.846v1.036h4.914v-.9h-1.18l-.521-10.735Z" transform="translate(-517.819 -475.448)" fill="#8ef4e0"/><path d="M234.556,2001.906v1.733h1.285v1.105h-1.285v1.374h1.285v1.374h-1.285v1.165h1.285v1.314H239.6l.791.211,23.29-.268.294,2.616-23.778-.239-.6-.956-6.174.08v-9.509Z" transform="translate(-366.62 -626.495)" fill="#579bff"/><path d="M69.536,1427.563a3.285,3.285,0,0,0-1.065,1.573,3.476,3.476,0,0,1-.836.976v.3H66.081v1h-.8v-1H61.879v.956h-.717v-.976H57.477v-1.016H55.665v1.016H51.981v.976h-.717v-.956H47.858v1h-.8v-1H45.509v-.3a3.477,3.477,0,0,1-.836-.976,3.285,3.285,0,0,0-1.065-1.573l-.4,4.663,13.362.177,13.362-.177Z" transform="translate(-198.134 -117.781)" fill="#579bff"/><path d="M320.7,1735.466h2.838v-.568l-3-.717-.372-2.458-.017-.111,0-.036-.742-5.849a2.361,2.361,0,0,0-.926,1.867l-.224.06a1.32,1.32,0,0,1-.747,1.016v.344l-1.449.05v1.21h-.787v-1.235l-3.525-.02v1.34h-.9v-1.28h-3.7v1.28h-.757v-1.3l-1.314.119v-.418a1.116,1.116,0,0,1-.817-1.036l-.4.08a1.761,1.761,0,0,0-1.215-1.832l-.06,2.549h-.239v1.193l-.508.834v2.393l.792-1.3,17.483-.067Z" transform="translate(-427.208 -381.875)" fill="#579bff"/></g></svg>