<svg xmlns="http://www.w3.org/2000/svg" xmlns:xlink="http://www.w3.org/1999/xlink" width="1280" height="895.282" viewBox="0 0 1280 895.282"><defs><clipPath id="a"><path d="M0,0H1280V895.282H0Z" transform="translate(0 -228.835)" fill="#ebf4ff"/></clipPath></defs><g transform="translate(0 228.835)" clip-path="url(#a)"><path d="M255.5,0H508.047A23.953,23.953,0,0,1,532,23.953V255.5A255.5,255.5,0,0,1,276.5,511h-21A255.5,255.5,0,0,1,0,255.5v0A255.5,255.5,0,0,1,255.5,0Z" transform="translate(-277 -378)" fill="#ff8d8d" opacity="0.502"/><path d="M301,0h26C493.238,0,628,144.508,628,322.768S493.238,645.537,327,645.537H301c-166.238,0-301-144.508-301-322.768S134.762,0,301,0Z" transform="translate(695 864.342) rotate(180)" fill="#d6fdf3" opacity="0.663"/><path d="M218,0h63.852a218,218,0,0,1,218,218v65.789a218,218,0,0,1-218,218H20a20,20,0,0,1-20-20V218A218,218,0,0,1,218,0Z" transform="translate(1324.539 331.155) rotate(90)" fill="#d1def9" opacity="0.663"/><path d="M327,0h28C535.6,0,682,147.881,682,330.3S535.6,660.6,355,660.6H327C146.4,660.6,0,512.723,0,330.3S146.4,0,327,0Z" transform="translate(1492 92.348) rotate(180)" fill="#ffefd1" opacity="0.895"/></g></svg>