<svg xmlns="http://www.w3.org/2000/svg" width="82.797" height="84.584" viewBox="0 0 82.797 84.584"><g transform="translate(-4837.088 432.884)"><g transform="translate(4858.558 -411.202)"><g transform="translate(0 0)"><path d="M4999.015-247.385v-4.47a17.675,17.675,0,0,1,17.655-17.655,17.675,17.675,0,0,1,17.655,17.655v4.47Z" transform="translate(-4996.742 271.783)" fill="#174dfd"/><path d="M5003.444-280.465a15.4,15.4,0,0,1,15.382,15.383v2.2h-30.764v-2.2a15.4,15.4,0,0,1,15.382-15.383m0-4.545a19.951,19.951,0,0,0-19.928,19.928v6.743h39.855v-6.743a19.95,19.95,0,0,0-19.928-19.928Z" transform="translate(-4983.516 285.01)" fill="#579bff"/></g></g><g transform="translate(4837.088 -392.945)"><g transform="translate(0 0)"><path d="M4891.7-104.888a3.908,3.908,0,0,1-2.619-1l-10.237-9.213a3.888,3.888,0,0,1-1.036-4.312,3.887,3.887,0,0,1,3.655-2.512h1.372v-.143h-12.3v1.265a3.927,3.927,0,0,1-3.927,3.918,3.879,3.879,0,0,1-2.757-1.15l-10.13-10.131a3.89,3.89,0,0,1-1.146-2.768,3.888,3.888,0,0,1,1.147-2.768l10.13-10.13a3.875,3.875,0,0,1,2.756-1.15,3.927,3.927,0,0,1,3.927,3.918v1.265h42.334v-1.265a3.927,3.927,0,0,1,3.927-3.918,3.876,3.876,0,0,1,2.756,1.15l10.13,10.13a3.919,3.919,0,0,1,0,5.536l-10.13,10.13a3.877,3.877,0,0,1-2.756,1.15,3.938,3.938,0,0,1-2.7-1.063,3.865,3.865,0,0,1-1.231-2.855v-1.265h-12.3v.143h1.373a3.887,3.887,0,0,1,3.654,2.512,3.888,3.888,0,0,1-1.036,4.313l-10.237,9.213A3.908,3.908,0,0,1,4891.7-104.888Z" transform="translate(-4850.298 147.26)" fill="#174dfd"/><path d="M4903.58-155.942a1.609,1.609,0,0,1,1.149.484l10.13,10.13a1.642,1.642,0,0,1,0,2.322l-10.13,10.13a1.609,1.609,0,0,1-1.149.484,1.641,1.641,0,0,1-1.654-1.646v-1.9a1.642,1.642,0,0,0-1.642-1.642H4886.72a1.642,1.642,0,0,0-1.642,1.642v1.4a1.642,1.642,0,0,0,1.642,1.642h2a1.642,1.642,0,0,1,1.1,2.863l-10.237,9.213a1.639,1.639,0,0,1-1.1.422,1.638,1.638,0,0,1-1.1-.422l-10.237-9.213a1.642,1.642,0,0,1,1.1-2.863h2a1.642,1.642,0,0,0,1.643-1.642v-1.4a1.642,1.642,0,0,0-1.643-1.642h-13.563a1.643,1.643,0,0,0-1.643,1.642v1.9a1.641,1.641,0,0,1-1.654,1.646,1.608,1.608,0,0,1-1.149-.484L4842.111-143a1.643,1.643,0,0,1,0-2.322l10.13-10.13a1.608,1.608,0,0,1,1.149-.484,1.641,1.641,0,0,1,1.654,1.646v1.9a1.643,1.643,0,0,0,1.643,1.642h43.6a1.642,1.642,0,0,0,1.642-1.642v-1.9a1.641,1.641,0,0,1,1.654-1.646m0-4.545a6.207,6.207,0,0,0-6.118,5.183h-37.953a6.207,6.207,0,0,0-6.118-5.183,6.137,6.137,0,0,0-4.364,1.816l-10.13,10.13a6.194,6.194,0,0,0,0,8.75l10.13,10.131a6.137,6.137,0,0,0,4.364,1.816,6.207,6.207,0,0,0,6.118-5.184h2.814a6.141,6.141,0,0,0,1.786,6.384l10.237,9.213a6.179,6.179,0,0,0,4.14,1.588,6.178,6.178,0,0,0,4.139-1.588l10.237-9.213a6.139,6.139,0,0,0,1.786-6.384h2.815a6.207,6.207,0,0,0,6.118,5.183,6.133,6.133,0,0,0,4.363-1.816l10.131-10.13a6.147,6.147,0,0,0,1.812-4.375,6.148,6.148,0,0,0-1.812-4.375l-10.131-10.13a6.133,6.133,0,0,0-4.363-1.816Z" transform="translate(-4837.088 160.487)" fill="#579bff"/></g></g><g transform="translate(4863.393 -432.884)"><g transform="translate(0 0)"><path d="M5043.531-392.657a13.055,13.055,0,0,1-13.04-13.04,13.177,13.177,0,0,1,3.807-9.28,12.861,12.861,0,0,1,9.233-3.906,12.863,12.863,0,0,1,9.234,3.906,13.178,13.178,0,0,1,3.807,9.281A13.055,13.055,0,0,1,5043.531-392.657Z" transform="translate(-5028.438 420.937)" fill="#c3fdf2"/><path d="M5031.583-428.779a11.114,11.114,0,0,1,10.988,11.134,11,11,0,0,1-10.988,10.987,11,11,0,0,1-10.987-10.987,11.114,11.114,0,0,1,10.987-11.134m0-4.105a14.9,14.9,0,0,0-10.7,4.521,15.217,15.217,0,0,0-4.395,10.718,15.11,15.11,0,0,0,15.093,15.093,15.11,15.11,0,0,0,15.093-15.093,15.22,15.22,0,0,0-4.395-10.719,14.9,14.9,0,0,0-10.7-4.521Z" transform="translate(-5016.49 432.884)" fill="#4d96fb"/></g></g></g></svg>