<svg xmlns="http://www.w3.org/2000/svg" width="57.897" height="75.57" viewBox="0 0 57.897 75.57"><g transform="translate(-1005.083 -654.846)"><path d="M5.029,0H52.868A5.029,5.029,0,0,1,57.9,5.029V70.54a5.029,5.029,0,0,1-5.029,5.029H5.029A5.029,5.029,0,0,1,0,70.54V5.029A5.029,5.029,0,0,1,5.029,0Z" transform="translate(1005.083 654.846)" fill="#579bff"/><g transform="translate(1008.803 659.461)"><g transform="translate(33.638 0)"><path d="M1200.816,679.024v16.819h16.819Z" transform="translate(-1200.816 -679.024)" fill="#174dfd"/></g><g transform="translate(0 0)"><path d="M1058.211,700.048a4.212,4.212,0,0,1-4.2-4.2V679.024h-25.229a4.212,4.212,0,0,0-4.2,4.2V742.1a4.209,4.209,0,0,0,4.2,4.205h42.048a4.206,4.206,0,0,0,4.2-4.205V700.048Zm-16.819,37.843h-8.409V725.277h8.409Zm12.615,0H1045.6V716.867h8.409Zm12.614,0h-8.41V708.458h8.41Z" transform="translate(-1024.573 -679.024)" fill="#174dfd"/></g></g><rect width="8.41" height="21.024" transform="translate(1029.827 697.304)" fill="#c3fdf2"/></g></svg>