<svg xmlns="http://www.w3.org/2000/svg" xmlns:xlink="http://www.w3.org/1999/xlink" width="1280" height="641.605" viewBox="0 0 1280 641.605"><defs><clipPath id="a"><path d="M0,0H1280V641.605H0Z" fill="#ebf4ff"/></clipPath></defs><g clip-path="url(#a)"><path d="M203.5,0H415.025A9.975,9.975,0,0,1,425,9.975V203.5A203.5,203.5,0,0,1,221.5,407h-18A203.5,203.5,0,0,1,0,203.5v0A203.5,203.5,0,0,1,203.5,0Z" transform="translate(-283 117)" fill="#ff8d8d" opacity="0.525"/><path d="M238.706,0C370.54,0,477.412,105.518,477.412,235.682S370.54,471.364,238.706,471.364,0,365.845,0,235.682,106.872,0,238.706,0Z" transform="translate(637.56 778.256) rotate(180)" fill="#2752db" opacity="0.309"/><path d="M200,0h22.269a200,200,0,0,1,200,200v23.906a200,200,0,0,1-200,200H15a15,15,0,0,1-15-15V200A200,200,0,0,1,200,0Z" transform="translate(802.444 -93.852) rotate(90)" fill="#c3fdf2" opacity="0.633"/><path d="M277.5,0h6C436.759,0,561,124.241,561,277.5S436.759,555,283.5,555h-6C124.241,555,0,430.759,0,277.5S124.241,0,277.5,0Z" transform="translate(1469 761) rotate(180)" fill="#ffefd1" opacity="0.667"/></g></svg>