<svg xmlns="http://www.w3.org/2000/svg" width="79.295" height="70.415" viewBox="0 0 79.295 70.415"><g transform="translate(-2058.387 -1274.567)"><g transform="translate(2113.821 1288.732)" fill="#c3fdf2" stroke="#337dff" stroke-miterlimit="10" stroke-width="6"><ellipse cx="7.349" cy="7.077" rx="7.349" ry="7.077" stroke="none"/><ellipse cx="7.349" cy="7.077" rx="10.349" ry="10.077" fill="none"/></g><g transform="translate(2067.55 1288.732)" fill="#c3fdf2" stroke="#337dff" stroke-miterlimit="10" stroke-width="6"><ellipse cx="7.349" cy="7.077" rx="7.349" ry="7.077" stroke="none"/><ellipse cx="7.349" cy="7.077" rx="10.349" ry="10.077" fill="none"/></g><g transform="translate(0 -180.308)" fill="#c3fdf2" stroke-miterlimit="10"><path d="M 2074.826904296875 1518.00927734375 C 2074.826416015625 1518.00927734375 2074.825927734375 1518.00927734375 2074.82568359375 1518.00927734375 C 2074.390869140625 1518.00927734375 2073.84814453125 1518.006225585938 2073.160888671875 1518.002197265625 C 2071.997802734375 1517.995483398438 2070.405029296875 1517.986328125 2068.252685546875 1517.986328125 C 2064.466796875 1517.986328125 2061.386962890625 1514.912963867188 2061.386962890625 1511.13525390625 L 2061.386962890625 1496.781127929688 C 2061.386962890625 1490.235595703125 2066.736083984375 1484.910522460938 2073.311279296875 1484.910522460938 C 2073.647216796875 1484.910522460938 2073.984619140625 1484.907104492188 2074.31103515625 1484.903686523438 C 2074.6328125 1484.900390625 2074.965576171875 1484.89697265625 2075.292236328125 1484.89697265625 C 2076.59228515625 1484.89697265625 2077.99560546875 1484.94775390625 2079.449951171875 1485.315551757812 C 2081.076904296875 1485.72705078125 2082.541015625 1486.478393554688 2083.925537109375 1487.61279296875 L 2086.46142578125 1489.6904296875 L 2084.16748046875 1492.032592773438 C 2081.816162109375 1494.43310546875 2080.474365234375 1496.92041015625 2079.816650390625 1500.097412109375 C 2079.182373046875 1503.162231445312 2079.239013671875 1506.606201171875 2079.304443359375 1510.594116210938 C 2079.32421875 1511.797607421875 2079.3447265625 1513.039672851562 2079.34716796875 1514.334106445312 C 2079.532470703125 1515.494750976562 2079.060302734375 1516.325439453125 2078.74267578125 1516.73486328125 C 2077.87060546875 1517.858520507812 2076.630615234375 1517.948974609375 2076.22314453125 1517.978637695312 C 2075.920654296875 1518.000732421875 2075.529052734375 1518.00927734375 2074.826904296875 1518.00927734375 Z" stroke="none"/><path d="M 2075.292236328125 1487.89697265625 C 2074.656982421875 1487.89697265625 2074 1487.910522460938 2073.311279296875 1487.910522460938 C 2068.390625 1487.910522460938 2064.386962890625 1491.890380859375 2064.386962890625 1496.781127929688 L 2064.386962890625 1511.13525390625 C 2064.386962890625 1513.259155273438 2066.12060546875 1514.986328125 2068.252685546875 1514.986328125 C 2071.671630859375 1514.986328125 2073.66748046875 1515.00927734375 2074.82568359375 1515.00927734375 C 2076.78564453125 1515.00927734375 2076.347412109375 1514.943481445312 2076.347412109375 1514.58935546875 C 2076.347412109375 1504.418090820312 2075.142822265625 1496.958862304688 2082.024169921875 1489.933349609375 C 2079.774169921875 1488.089965820312 2077.69189453125 1487.89697265625 2075.292236328125 1487.89697265625 M 2075.290771484375 1481.89697265625 C 2078.610595703125 1481.89697265625 2082.184814453125 1482.308349609375 2085.82666015625 1485.292114257812 L 2090.898681640625 1489.447631835938 L 2086.310546875 1494.131713867188 C 2082.27490234375 1498.252075195312 2082.165771484375 1502.140991210938 2082.30419921875 1510.544799804688 L 2082.339599609375 1513.86767578125 L 2082.911376953125 1516.106811523438 L 2081.111572265625 1518.5751953125 C 2079.2216796875 1521.00927734375 2076.576171875 1521.00927734375 2074.82568359375 1521.00927734375 L 2073.143310546875 1521.002197265625 L 2068.252685546875 1520.986328125 C 2062.812744140625 1520.986328125 2058.386962890625 1516.567138671875 2058.386962890625 1511.13525390625 L 2058.386962890625 1496.781127929688 C 2058.386962890625 1488.581420898438 2065.08203125 1481.910522460938 2073.311279296875 1481.910522460938 L 2073.342041015625 1481.91015625 L 2075.290771484375 1481.89697265625 Z" stroke="none" fill="#337dff"/></g><g transform="translate(-328.152 -180.309)" fill="#c3fdf2" stroke-miterlimit="10"><path d="M 2449.412841796875 1518.011596679688 C 2448.71435546875 1518.011596679688 2448.32275390625 1518.00244140625 2448.016357421875 1517.97900390625 C 2447.626220703125 1517.949340820312 2446.43896484375 1517.858642578125 2445.56787109375 1516.817138671875 C 2445.23828125 1516.423095703125 2444.72900390625 1515.602172851562 2444.873779296875 1514.410522460938 C 2444.87548828125 1513.04345703125 2444.89453125 1511.750732421875 2444.9130859375 1510.498779296875 C 2445.0361328125 1502.20361328125 2445.1103515625 1497.196655273438 2440.053466796875 1492.033935546875 L 2437.759521484375 1489.691650390625 L 2440.295654296875 1487.614013671875 C 2443.354248046875 1485.108276367188 2446.24072265625 1484.898559570312 2448.934814453125 1484.898559570312 C 2449.25927734375 1484.898559570312 2449.590576171875 1484.90185546875 2449.910888671875 1484.905151367188 C 2450.23681640625 1484.908325195312 2450.57373046875 1484.911743164062 2450.909423828125 1484.911743164062 C 2457.48486328125 1484.911743164062 2462.834228515625 1490.236938476562 2462.834228515625 1496.782470703125 L 2462.834228515625 1510.999877929688 C 2462.834228515625 1514.852905273438 2459.692626953125 1517.987670898438 2455.830810546875 1517.987670898438 C 2453.740234375 1517.987670898438 2452.186767578125 1517.997192382812 2451.052490234375 1518.004150390625 C 2450.37646484375 1518.00830078125 2449.84228515625 1518.011596679688 2449.412841796875 1518.011596679688 Z" stroke="none"/><path d="M 2448.934814453125 1487.898559570312 C 2446.5244140625 1487.898559570312 2444.4482421875 1488.090209960938 2442.19677734375 1489.934692382812 C 2449.02685546875 1496.907958984375 2447.873779296875 1503.858276367188 2447.873779296875 1514.590576171875 C 2447.873779296875 1514.945068359375 2447.51416015625 1515.011596679688 2449.4130859375 1515.011596679688 C 2450.5517578125 1515.011596679688 2452.502685546875 1514.987670898438 2455.830810546875 1514.987670898438 C 2458.03857421875 1514.987670898438 2459.834228515625 1513.19873046875 2459.834228515625 1510.999877929688 L 2459.834228515625 1496.782470703125 C 2459.834228515625 1491.8916015625 2455.830810546875 1487.911743164062 2450.909423828125 1487.911743164062 C 2450.22216796875 1487.911743164062 2449.56689453125 1487.898559570312 2448.934814453125 1487.898559570312 M 2448.934814453125 1481.898559570312 L 2448.96484375 1481.898559570312 L 2449.94091796875 1481.9052734375 C 2459.138916015625 1481.911743164062 2465.834228515625 1488.582763671875 2465.834228515625 1496.782470703125 L 2465.834228515625 1510.999877929688 C 2465.834228515625 1516.507202148438 2461.3466796875 1520.987670898438 2455.830810546875 1520.987670898438 L 2451.07080078125 1521.004150390625 L 2449.4130859375 1521.011596679688 C 2447.620361328125 1521.011596679688 2445.1650390625 1521.011596679688 2443.266845703125 1518.741943359375 L 2441.468017578125 1516.59130859375 L 2441.9521484375 1513.674560546875 L 2441.91357421875 1510.454345703125 C 2442.04052734375 1501.881469726562 2441.931884765625 1498.23876953125 2437.910400390625 1494.133056640625 L 2433.322265625 1489.44873046875 L 2438.39453125 1485.293334960938 C 2442.036376953125 1482.309814453125 2445.612548828125 1481.898559570312 2448.934814453125 1481.898559570312 Z" stroke="none" fill="#337dff"/></g><g transform="translate(2086.603 1280.567)" fill="#174dfd" stroke="#337dff" stroke-miterlimit="10" stroke-width="6"><ellipse cx="11.432" cy="11.16" rx="11.432" ry="11.16" stroke="none"/><ellipse cx="11.432" cy="11.16" rx="14.432" ry="14.16" fill="none"/></g><g transform="translate(-104.388 -179.719)" fill="#174dfd" stroke-miterlimit="10"><path d="M 2209.00048828125 1521.700561523438 C 2208.99951171875 1521.700561523438 2208.998779296875 1521.700561523438 2208.99755859375 1521.700561523438 C 2207.221435546875 1521.700561523438 2205.10693359375 1521.684204101562 2202.658203125 1521.665283203125 C 2199.10498046875 1521.6376953125 2194.68310546875 1521.603515625 2189.28173828125 1521.603515625 C 2185.08935546875 1521.603515625 2181.678466796875 1518.192749023438 2181.678466796875 1514.000366210938 C 2181.678466796875 1512.674682617188 2181.650390625 1511.364868164062 2181.623291015625 1510.09814453125 C 2181.5380859375 1506.104736328125 2181.45751953125 1502.332885742188 2182.255615234375 1498.786010742188 C 2183.19384765625 1494.6162109375 2185.272216796875 1491.286743164062 2188.609375 1488.608276367188 C 2192.2451171875 1485.613891601562 2196.544921875 1484.219116210938 2202.138671875 1484.219116210938 C 2203.2353515625 1484.219116210938 2204.39599609375 1484.27001953125 2205.683837890625 1484.374877929688 C 2207.672607421875 1484.395751953125 2209.7890625 1484.887329101562 2211.813720703125 1485.799682617188 C 2213.834228515625 1486.710205078125 2215.76708984375 1488.042114257812 2217.4033203125 1489.651489257812 C 2221.11962890625 1493.306518554688 2223.166259765625 1498.1279296875 2223.166259765625 1503.227783203125 C 2223.166259765625 1505.760620117188 2223.173095703125 1507.70947265625 2223.178466796875 1509.275390625 C 2223.188720703125 1512.226318359375 2223.193359375 1513.5732421875 2223.137939453125 1514.488037109375 C 2223.06201171875 1515.743408203125 2222.837890625 1516.338500976562 2222.529541015625 1517.042236328125 L 2222.522216796875 1517.058837890625 L 2222.515625 1517.074096679688 L 2222.5087890625 1517.08935546875 C 2221.768310546875 1518.729125976562 2220.72021484375 1520.348022460938 2218.084716796875 1521.083618164062 C 2216.216796875 1521.605102539062 2213.559326171875 1521.700561523438 2209.00048828125 1521.700561523438 Z" stroke="none"/><path d="M 2202.138671875 1487.219116210938 C 2197.801513671875 1487.218994140625 2193.93408203125 1488.102905273438 2190.501953125 1490.93603515625 C 2183.291259765625 1496.711303710938 2184.678466796875 1504.487426757812 2184.678466796875 1514.000366210938 C 2184.678466796875 1516.517211914062 2186.7265625 1518.603515625 2189.28173828125 1518.603515625 C 2198.4189453125 1518.603515625 2204.66845703125 1518.700561523438 2208.99755859375 1518.700561523438 C 2217.813232421875 1518.700561523438 2218.67138671875 1518.29833984375 2219.7744140625 1515.85498046875 C 2220.314208984375 1514.622802734375 2220.166259765625 1515.014526367188 2220.166259765625 1503.227783203125 C 2220.166259765625 1493.8662109375 2212.060302734375 1487.374145507812 2205.552001953125 1487.374145507812 C 2204.383544921875 1487.276733398438 2203.245361328125 1487.219116210938 2202.138671875 1487.219116210938 M 2202.1376953125 1481.219116210938 L 2202.137939453125 1481.219116210938 C 2203.4072265625 1481.219116210938 2204.711669921875 1481.283203125 2206.05078125 1481.394897460938 C 2206.060791015625 1481.394897460938 2206.072509765625 1481.394897460938 2206.082763671875 1481.394897460938 C 2215.32763671875 1481.393920898438 2226.166259765625 1490.36328125 2226.166259765625 1503.227783203125 L 2226.178466796875 1509.26513671875 C 2226.2001953125 1515.484985351562 2226.202392578125 1516.13525390625 2225.27734375 1518.246215820312 C 2222.364013671875 1524.700561523438 2217.3330078125 1524.700561523438 2208.99755859375 1524.700561523438 L 2202.633056640625 1524.665161132812 C 2199.05859375 1524.637451171875 2194.675048828125 1524.603515625 2189.28173828125 1524.603515625 C 2183.43505859375 1524.603515625 2178.678466796875 1519.846923828125 2178.678466796875 1514.000366210938 L 2178.6240234375 1510.162231445312 C 2178.45263671875 1502.1435546875 2178.258544921875 1493.054931640625 2186.751220703125 1486.2529296875 C 2190.88916015625 1482.83642578125 2195.800048828125 1481.219116210938 2202.1376953125 1481.219116210938 Z" stroke="none" fill="#337dff"/></g></g></svg>